<?xml version="1.0" encoding="UTF-8"?>
<svg xmlns="http://www.w3.org/2000/svg" xmlns:xlink="http://www.w3.org/1999/xlink" width="35px" height="35px" viewBox="0 0 35 35" version="1.1">
<g id="surface1">
<rect x="0" y="0" width="35" height="35" style="fill:rgb(16.470589%,2.352941%,20.392157%);fill-opacity:1;stroke:none;"/>
<path style=" stroke:none;fill-rule:nonzero;fill:rgb(91.37255%,46.27451%,72.549021%);fill-opacity:1;" d="M 0 0 L 0 35 L 35 35 L 35 0 Z M 33.632812 33.632812 L 1.367188 33.632812 L 1.367188 1.367188 L 33.632812 1.367188 Z M 33.632812 33.632812 "/>
<path style=" stroke:none;fill-rule:nonzero;fill:rgb(91.37255%,46.27451%,72.549021%);fill-opacity:1;" d="M 18.867188 12.878906 C 18.839844 10.308594 16.734375 8.257812 14.164062 8.285156 L 9.105469 8.285156 L 9.105469 24.28125 L 11.730469 24.28125 L 11.730469 18.457031 L 14 18.457031 C 16.679688 18.429688 18.867188 16.214844 18.867188 13.507812 Z M 16.242188 13.699219 C 16.242188 15.066406 15.121094 16.1875 13.753906 16.1875 L 11.730469 16.1875 L 11.730469 10.527344 L 13.753906 10.527344 C 15.121094 10.527344 16.242188 11.648438 16.242188 13.015625 Z M 21.082031 24.28125 L 21.082031 13.371094 C 21.082031 13.371094 23.871094 11.976562 26.605469 12.332031 L 26.605469 14.601562 C 26.605469 14.601562 24.691406 14.601562 23.84375 14.957031 L 23.84375 24.308594 L 21.082031 24.308594 Z M 21.082031 24.28125 "/>
</g>
</svg>
