<?xml version="1.0" encoding="UTF-8"?>
<svg xmlns="http://www.w3.org/2000/svg" xmlns:xlink="http://www.w3.org/1999/xlink" width="35px" height="35px" viewBox="0 0 35 35" version="1.1">
<defs>
<linearGradient id="linear0" gradientUnits="userSpaceOnUse" x1="64" y1="2.16" x2="64" y2="125.839996" gradientTransform="matrix(0.273438,0,0,0.273438,0,0)">
<stop offset="0" style="stop-color:rgb(0%,36.078431%,100%);stop-opacity:1;"/>
<stop offset="1" style="stop-color:rgb(0%,27.843137%,67.843137%);stop-opacity:1;"/>
</linearGradient>
</defs>
<g id="surface1">
<path style=" stroke:none;fill-rule:nonzero;fill:url(#linear0);" d="M 4.582031 0.589844 L 30.421875 0.589844 C 32.625 0.589844 34.410156 2.375 34.410156 4.582031 L 34.410156 30.417969 C 34.410156 32.621094 32.625 34.40625 30.421875 34.40625 L 4.582031 34.40625 C 2.375 34.40625 0.589844 32.621094 0.589844 30.417969 L 0.589844 4.582031 C 0.589844 2.375 2.375 0.589844 4.582031 0.589844 Z M 4.582031 0.589844 "/>
<path style=" stroke:none;fill-rule:nonzero;fill:rgb(100%,100%,100%);fill-opacity:1;" d="M 14.390625 16.484375 C 14.390625 16.484375 17.261719 16.269531 17.261719 12.902344 C 17.261719 9.539062 14.914062 7.894531 11.9375 7.894531 L 2.148438 7.894531 L 2.148438 26.707031 L 11.9375 26.707031 C 11.9375 26.707031 17.914062 26.894531 17.914062 21.152344 C 17.914062 21.152344 18.175781 16.484375 14.390625 16.484375 Z M 6.460938 11.238281 L 11.929688 11.238281 C 11.929688 11.238281 13.261719 11.238281 13.261719 13.195312 C 13.261719 15.152344 12.480469 15.4375 11.589844 15.4375 L 6.464844 15.4375 Z M 11.683594 23.363281 L 6.464844 23.363281 L 6.464844 18.335938 L 11.933594 18.335938 C 11.933594 18.335938 13.914062 18.308594 13.914062 20.921875 C 13.921875 23.09375 12.472656 23.339844 11.6875 23.363281 Z M 25.882812 12.683594 C 18.648438 12.683594 18.65625 19.910156 18.65625 19.910156 C 18.65625 19.910156 18.160156 27.101562 25.882812 27.101562 C 25.882812 27.101562 32.320312 27.46875 32.320312 22.097656 L 29.011719 22.097656 C 29.011719 22.097656 29.121094 24.121094 26.003906 24.121094 C 26.003906 24.121094 22.691406 24.34375 22.691406 20.839844 L 32.441406 20.839844 C 32.441406 20.839844 33.5 12.683594 25.882812 12.683594 Z M 28.824219 18.335938 L 22.644531 18.335938 C 22.644531 18.335938 23.050781 15.4375 25.957031 15.4375 C 28.863281 15.4375 28.824219 18.335938 28.824219 18.335938 Z M 21.835938 9.003906 L 29.597656 9.003906 L 29.597656 11.320312 L 21.835938 11.320312 Z M 21.835938 9.003906 "/>
</g>
</svg>
