<?xml version="1.0" encoding="UTF-8"?>
<svg xmlns="http://www.w3.org/2000/svg" xmlns:xlink="http://www.w3.org/1999/xlink" width="35px" height="35px" viewBox="0 0 35 35" version="1.1">
<g id="surface1">
<path style=" stroke:none;fill-rule:evenodd;fill:rgb(92.54902%,28.627452%,53.725493%);fill-opacity:1;" d="M 3.890625 35 L 31.109375 35 C 33.257812 35 35 33.257812 35 31.109375 L 35 3.890625 C 35 1.742188 33.257812 0 31.109375 0 L 3.890625 0 C 1.742188 0 0 1.742188 0 3.890625 L 0 31.109375 C 0 33.257812 1.742188 35 3.890625 35 Z M 3.890625 35 "/>
<path style=" stroke:none;fill-rule:evenodd;fill:rgb(100%,100%,100%);fill-opacity:1;" d="M 23.066406 25.761719 C 22.964844 25.164062 22.4375 22.238281 21.128906 18.648438 C 24.34375 18.132812 27.132812 19.015625 27.335938 19.082031 C 26.894531 21.859375 25.304688 24.253906 23.066406 25.761719 Z M 17.5 27.464844 C 15.089844 27.464844 12.878906 26.605469 11.152344 25.179688 C 11.285156 25.289062 11.375 25.355469 11.375 25.355469 C 11.375 25.355469 13.285156 21.191406 19.195312 19.128906 C 19.21875 19.121094 19.242188 19.117188 19.261719 19.109375 C 20.664062 22.753906 21.242188 25.804688 21.390625 26.675781 C 20.195312 27.179688 18.878906 27.464844 17.5 27.464844 Z M 7.535156 17.5 C 7.535156 17.394531 7.542969 17.289062 7.542969 17.183594 C 7.722656 17.1875 12.644531 17.300781 17.773438 15.765625 C 18.058594 16.324219 18.332031 16.894531 18.582031 17.460938 C 18.449219 17.496094 18.320312 17.535156 18.1875 17.578125 C 12.8125 19.316406 10.085938 24.152344 10.085938 24.152344 C 10.085938 24.152344 10.089844 24.15625 10.089844 24.15625 C 8.5 22.394531 7.535156 20.058594 7.535156 17.5 Z M 13.25 8.492188 C 13.382812 8.667969 15.222656 11.164062 16.949219 14.230469 C 12.164062 15.5 8.011719 15.453125 7.75 15.445312 C 8.394531 12.359375 10.46875 9.800781 13.25 8.492188 Z M 15.113281 7.828125 C 15.113281 7.828125 15.101562 7.832031 15.082031 7.835938 C 15.09375 7.832031 15.101562 7.832031 15.113281 7.828125 Z M 24.082031 10.023438 C 24.054688 10.0625 22.636719 12.222656 18.875 13.628906 C 17.171875 10.5 15.300781 8.015625 15.152344 7.820312 C 15.90625 7.636719 16.691406 7.539062 17.5 7.539062 C 20.023438 7.539062 22.324219 8.476562 24.082031 10.023438 Z M 27.460938 17.402344 C 27.316406 17.367188 23.945312 16.644531 20.523438 17.074219 C 20.449219 16.902344 20.378906 16.734375 20.304688 16.5625 C 20.097656 16.074219 19.875 15.589844 19.644531 15.113281 C 23.578125 13.507812 25.175781 11.199219 25.195312 11.171875 C 26.589844 12.871094 27.4375 15.035156 27.460938 17.402344 Z M 28.929688 15.152344 C 28.777344 14.402344 28.546875 13.664062 28.25 12.957031 C 27.957031 12.265625 27.59375 11.601562 27.171875 10.976562 C 26.757812 10.359375 26.277344 9.777344 25.75 9.25 C 25.222656 8.722656 24.640625 8.246094 24.023438 7.828125 C 23.398438 7.40625 22.734375 7.042969 22.042969 6.75 C 21.335938 6.453125 20.597656 6.222656 19.847656 6.070312 C 19.082031 5.914062 18.289062 5.832031 17.5 5.832031 C 16.710938 5.832031 15.917969 5.914062 15.152344 6.070312 C 14.402344 6.222656 13.664062 6.453125 12.957031 6.75 C 12.265625 7.042969 11.601562 7.40625 10.976562 7.828125 C 10.359375 8.246094 9.777344 8.722656 9.25 9.25 C 8.722656 9.777344 8.242188 10.359375 7.828125 10.976562 C 7.40625 11.601562 7.042969 12.265625 6.75 12.957031 C 6.453125 13.664062 6.222656 14.402344 6.070312 15.152344 C 5.914062 15.917969 5.832031 16.710938 5.832031 17.5 C 5.832031 18.292969 5.914062 19.082031 6.070312 19.851562 C 6.222656 20.601562 6.453125 21.335938 6.75 22.042969 C 7.042969 22.734375 7.40625 23.402344 7.828125 24.023438 C 8.242188 24.640625 8.722656 25.222656 9.25 25.75 C 9.777344 26.277344 10.359375 26.753906 10.976562 27.171875 C 11.601562 27.59375 12.265625 27.957031 12.957031 28.25 C 13.664062 28.546875 14.402344 28.777344 15.152344 28.929688 C 15.917969 29.085938 16.710938 29.167969 17.5 29.167969 C 18.289062 29.167969 19.082031 29.085938 19.847656 28.929688 C 20.597656 28.777344 21.335938 28.546875 22.042969 28.25 C 22.734375 27.957031 23.398438 27.59375 24.023438 27.171875 C 24.640625 26.753906 25.222656 26.277344 25.75 25.75 C 26.277344 25.222656 26.757812 24.640625 27.171875 24.023438 C 27.59375 23.402344 27.957031 22.734375 28.25 22.042969 C 28.546875 21.335938 28.777344 20.601562 28.929688 19.851562 C 29.085938 19.082031 29.167969 18.292969 29.167969 17.5 C 29.167969 16.710938 29.085938 15.917969 28.929688 15.152344 Z M 28.929688 15.152344 "/>
</g>
</svg>
