<?xml version="1.0" encoding="UTF-8"?>
<svg xmlns="http://www.w3.org/2000/svg" xmlns:xlink="http://www.w3.org/1999/xlink" width="35px" height="35px" viewBox="0 0 35 35" version="1.1">
<g id="surface1">
<path style=" stroke:none;fill-rule:nonzero;fill:rgb(3.921569%,81.176472%,51.372552%);fill-opacity:1;" d="M 12.441406 35.273438 C 15.695312 35.273438 18.320312 32.648438 18.320312 29.394531 L 18.320312 23.515625 L 12.441406 23.515625 C 9.1875 23.515625 6.5625 26.140625 6.5625 29.394531 C 6.5625 32.648438 9.1875 35.273438 12.441406 35.273438 Z M 12.441406 35.273438 "/>
<path style=" stroke:none;fill-rule:nonzero;fill:rgb(63.529414%,34.901962%,100%);fill-opacity:1;" d="M 6.5625 17.636719 C 6.5625 14.382812 9.1875 11.757812 12.441406 11.757812 L 18.320312 11.757812 L 18.320312 23.515625 L 12.441406 23.515625 C 9.1875 23.515625 6.5625 20.890625 6.5625 17.636719 Z M 6.5625 17.636719 "/>
<path style=" stroke:none;fill-rule:nonzero;fill:rgb(94.901961%,30.588236%,11.764706%);fill-opacity:1;" d="M 6.5625 5.878906 C 6.5625 2.625 9.1875 0 12.441406 0 L 18.320312 0 L 18.320312 11.757812 L 12.441406 11.757812 C 9.1875 11.757812 6.5625 9.132812 6.5625 5.878906 Z M 6.5625 5.878906 "/>
<path style=" stroke:none;fill-rule:nonzero;fill:rgb(100%,44.705883%,38.431373%);fill-opacity:1;" d="M 18.320312 0 L 24.199219 0 C 27.453125 0 30.078125 2.625 30.078125 5.878906 C 30.078125 9.132812 27.453125 11.757812 24.199219 11.757812 L 18.320312 11.757812 Z M 18.320312 0 "/>
<path style=" stroke:none;fill-rule:nonzero;fill:rgb(10.196079%,73.725492%,99.607843%);fill-opacity:1;" d="M 30.078125 17.636719 C 30.078125 20.890625 27.453125 23.515625 24.199219 23.515625 C 20.945312 23.515625 18.320312 20.890625 18.320312 17.636719 C 18.320312 14.382812 20.945312 11.757812 24.199219 11.757812 C 27.453125 11.757812 30.078125 14.382812 30.078125 17.636719 Z M 30.078125 17.636719 "/>
</g>
</svg>
