<?xml version="1.0" encoding="UTF-8"?>
<svg xmlns="http://www.w3.org/2000/svg" xmlns:xlink="http://www.w3.org/1999/xlink" width="35px" height="35px" viewBox="0 0 35 35" version="1.1">
<g id="surface1">
<path style=" stroke:none;fill-rule:nonzero;fill:rgb(20%,60.392159%,94.117647%);fill-opacity:1;" d="M 31.078125 0 L 3.921875 0 C 1.773438 0 0 1.773438 0 3.921875 L 0 31.078125 C 0 33.226562 1.773438 35 3.921875 35 L 31.078125 35 C 33.226562 35 35 33.226562 35 31.078125 L 35 3.921875 C 35 1.773438 33.226562 0 31.078125 0 Z M 27.53125 22.210938 C 27.53125 22.539062 27.25 22.679688 26.921875 22.820312 C 25.617188 23.382812 24.21875 23.890625 22.71875 23.890625 C 20.617188 23.890625 19.640625 22.585938 17.117188 22.585938 C 15.296875 22.585938 13.382812 23.242188 11.84375 23.9375 C 11.75 23.984375 11.65625 23.984375 11.5625 24.03125 L 11.5625 27.578125 C 11.5625 27.71875 11.5625 27.859375 11.515625 27.953125 L 11.515625 28.046875 C 11.328125 28.703125 10.71875 29.164062 10.023438 29.164062 C 9.140625 29.164062 8.4375 28.460938 8.4375 27.578125 L 8.4375 10.5 C 7.828125 10.03125 7.414062 9.289062 7.414062 8.445312 C 7.414062 7 8.578125 5.828125 10.03125 5.828125 C 11.476562 5.828125 12.648438 6.992188 12.648438 8.445312 C 12.648438 9.289062 12.273438 10.03125 11.625 10.5 L 11.625 11.945312 C 11.765625 11.898438 11.90625 11.851562 12.046875 11.757812 C 13.492188 11.148438 15.21875 10.640625 16.851562 10.640625 C 18.625 10.640625 20.023438 11.109375 21.609375 11.710938 C 21.9375 11.851562 22.265625 11.898438 22.632812 11.898438 C 24.40625 11.898438 26.367188 10.640625 26.835938 10.640625 C 27.210938 10.640625 27.539062 10.921875 27.539062 11.25 L 27.539062 22.210938 Z M 27.53125 22.210938 "/>
</g>
</svg>
