<?xml version="1.0" encoding="UTF-8"?>
<svg xmlns="http://www.w3.org/2000/svg" xmlns:xlink="http://www.w3.org/1999/xlink" width="35px" height="35px" viewBox="0 0 35 35" version="1.1">
<g id="surface1">
<path style=" stroke:none;fill-rule:nonzero;fill:rgb(95.294118%,30.980393%,16.078432%);fill-opacity:1;" d="M 34.109375 15.960938 L 19.035156 0.890625 C 18.167969 0.0234375 16.761719 0.0234375 15.894531 0.890625 L 12.765625 4.023438 L 16.734375 7.992188 C 17.65625 7.679688 18.714844 7.890625 19.449219 8.625 C 20.1875 9.363281 20.394531 10.429688 20.078125 11.355469 L 23.902344 15.183594 C 24.828125 14.863281 25.898438 15.070312 26.636719 15.8125 C 27.667969 16.84375 27.667969 18.519531 26.636719 19.550781 C 25.601562 20.585938 23.925781 20.585938 22.894531 19.550781 C 22.140625 18.796875 21.914062 17.660156 22.320312 16.675781 L 18.75 13.105469 L 18.75 22.496094 C 19.007812 22.625 19.246094 22.792969 19.449219 22.996094 C 20.484375 24.03125 20.484375 25.703125 19.449219 26.738281 C 18.417969 27.769531 16.742188 27.769531 15.710938 26.738281 C 14.675781 25.703125 14.675781 24.03125 15.710938 22.996094 C 15.957031 22.75 16.25 22.550781 16.574219 22.417969 L 16.574219 12.941406 C 16.25 12.808594 15.957031 12.613281 15.710938 12.367188 C 14.925781 11.582031 14.738281 10.433594 15.140625 9.472656 L 11.226562 5.558594 L 0.890625 15.894531 C 0.0234375 16.761719 0.0234375 18.167969 0.890625 19.039062 L 15.964844 34.109375 C 16.832031 34.976562 18.238281 34.976562 19.109375 34.109375 L 34.109375 19.109375 C 34.976562 18.238281 34.976562 16.832031 34.109375 15.960938 Z M 34.109375 15.960938 "/>
</g>
</svg>
