<?xml version="1.0" encoding="UTF-8"?>
<svg xmlns="http://www.w3.org/2000/svg" xmlns:xlink="http://www.w3.org/1999/xlink" width="35px" height="35px" viewBox="0 0 35 35" version="1.1">
<defs>
<linearGradient id="linear0" gradientUnits="userSpaceOnUse" x1="16" y1="32" x2="16" y2="0" gradientTransform="matrix(1.09375,0,0,1.09375,0,0)">
<stop offset="0" style="stop-color:rgb(100%,17.647059%,46.27451%);stop-opacity:1;"/>
<stop offset="1" style="stop-color:rgb(98.431373%,0%,0%);stop-opacity:1;"/>
</linearGradient>
</defs>
<g id="surface1">
<path style=" stroke:none;fill-rule:nonzero;fill:url(#linear0);" d="M 23.851562 35 L 14.523438 35 C 14.523438 35 14.535156 32.230469 14.523438 30.332031 C 8.136719 31.707031 6.355469 26.832031 6.355469 26.832031 C 5.1875 24.5 4.023438 23.332031 4.023438 23.332031 C 1.6875 21.945312 4.023438 22.164062 4.023438 22.164062 C 6.355469 22.164062 7.523438 24.5 7.523438 24.5 C 9.570312 27.976562 13.210938 27.414062 14.523438 26.832031 C 14.523438 25.664062 15.03125 23.902344 15.6875 23.332031 C 10.59375 22.757812 6.351562 19.832031 6.351562 14 C 6.351562 8.164062 7.523438 7 8.6875 5.832031 C 8.453125 5.257812 7.476562 3.132812 8.722656 0 C 8.722656 0 11.015625 0 13.347656 3.5 C 14.503906 2.34375 18.015625 2.332031 19.183594 2.332031 C 20.347656 2.332031 23.859375 2.34375 25.015625 3.5 C 27.347656 0 29.648438 0 29.648438 0 C 30.894531 3.132812 29.917969 5.257812 29.683594 5.832031 C 30.847656 7 32.015625 8.164062 32.015625 14 C 32.015625 19.835938 27.777344 22.761719 22.683594 23.332031 C 23.339844 23.902344 23.847656 25.910156 23.847656 26.832031 L 23.847656 35 Z M 23.851562 35 "/>
</g>
</svg>
