<?xml version="1.0" encoding="UTF-8"?>
<svg xmlns="http://www.w3.org/2000/svg" xmlns:xlink="http://www.w3.org/1999/xlink" width="35px" height="35px" viewBox="0 0 35 35" version="1.1">
<defs>
<linearGradient id="linear0" gradientUnits="userSpaceOnUse" x1="11.622" y1="7.023" x2="11.622" y2="13.825" gradientTransform="matrix(2.17041,0,0,2.17041,0.136719,0.161875)">
<stop offset="0" style="stop-color:rgb(0.392157%,58.823529%,79.215686%);stop-opacity:1;"/>
<stop offset="1" style="stop-color:rgb(0%,39.607843%,66.27451%);stop-opacity:1;"/>
</linearGradient>
<linearGradient id="linear1" gradientUnits="userSpaceOnUse" x1="11.622" y1="8.675" x2="11.622" y2="15.977" gradientTransform="matrix(2.17041,0,0,2.17041,0.136719,0.161875)">
<stop offset="0" style="stop-color:rgb(0.392157%,65.490196%,87.058824%);stop-opacity:1;"/>
<stop offset="1" style="stop-color:rgb(0%,47.843137%,80%);stop-opacity:1;"/>
</linearGradient>
<linearGradient id="linear2" gradientUnits="userSpaceOnUse" x1="14.594" y1="7.023" x2="14.594" y2="15.977" gradientTransform="matrix(2.17041,0,0,2.17041,0.136719,0.161875)">
<stop offset="0" style="stop-color:rgb(18.039216%,76.078431%,96.470588%);stop-opacity:1;"/>
<stop offset="1" style="stop-color:rgb(12.156863%,61.176471%,94.117647%);stop-opacity:1;"/>
</linearGradient>
</defs>
<g id="surface1">
<path style=" stroke:none;fill-rule:nonzero;fill:rgb(14.117648%,16.078432%,18.039216%);fill-opacity:1;" d="M 0.136719 17.523438 C 0.136719 7.933594 7.90625 0.160156 17.5 0.160156 C 25.59375 0.160156 32.390625 5.695312 34.316406 13.183594 L 27.738281 13.183594 C 27.480469 12.738281 27.179688 12.324219 26.832031 11.949219 C 27.007812 11.511719 27.613281 9.734375 26.660156 7.347656 C 26.660156 7.347656 25.203125 6.867188 21.882812 9.125 C 20.496094 8.734375 19.019531 8.539062 17.542969 8.539062 C 16.066406 8.539062 14.589844 8.734375 13.203125 9.125 C 9.882812 6.890625 8.429688 7.347656 8.429688 7.347656 C 7.472656 9.734375 8.082031 11.511719 8.253906 11.949219 C 7.148438 13.164062 6.472656 14.726562 6.472656 16.613281 C 6.472656 21.277344 8.464844 23.40625 10.988281 24.410156 L 10.988281 27.953125 C 10.035156 27.875 9.003906 27.40625 8.210938 26.078125 C 7.886719 25.554688 6.910156 24.277344 5.542969 24.296875 C 4.085938 24.320312 4.957031 25.121094 5.5625 25.449219 C 6.300781 25.859375 7.148438 27.402344 7.34375 27.898438 C 7.621094 28.6875 8.410156 30.050781 10.988281 30.132812 L 10.988281 33.621094 C 4.621094 31.046875 0.136719 24.824219 0.136719 17.527344 Z M 0.136719 17.523438 "/>
<path style=" stroke:none;fill-rule:nonzero;fill:url(#linear0);" d="M 34.171875 17.464844 L 30.148438 15.527344 C 29.679688 15.300781 29.125 15.394531 28.757812 15.761719 L 16.125 26.691406 C 15.957031 26.84375 15.859375 27.0625 15.859375 27.292969 C 15.859375 27.519531 15.957031 27.738281 16.125 27.894531 L 18.289062 29.957031 C 18.578125 30.21875 19.015625 30.238281 19.328125 30.003906 L 30.523438 21.324219 L 33.160156 18.414062 C 33.429688 18.117188 33.734375 17.761719 34.132812 17.804688 C 34.519531 17.84375 34.863281 18.164062 34.863281 18.609375 L 34.863281 18.5625 C 34.863281 18.09375 34.59375 17.667969 34.171875 17.464844 Z M 34.171875 17.464844 "/>
<path style=" stroke:none;fill-rule:nonzero;fill:url(#linear1);" d="M 34.171875 32.78125 L 30.148438 34.71875 C 29.679688 34.941406 29.125 34.847656 28.757812 34.480469 L 16.125 22.46875 C 15.957031 22.3125 15.859375 22.09375 15.859375 21.867188 C 15.859375 21.636719 15.957031 21.417969 16.125 21.265625 L 18.289062 19.203125 C 18.578125 18.9375 19.015625 18.917969 19.328125 19.15625 L 30.523438 28.921875 L 33.160156 31.828125 C 33.429688 32.128906 33.734375 32.480469 34.132812 32.4375 C 34.519531 32.398438 34.863281 32.082031 34.863281 31.632812 L 34.863281 31.679688 C 34.863281 32.148438 34.59375 32.578125 34.171875 32.78125 Z M 34.171875 32.78125 "/>
<path style=" stroke:none;fill-rule:nonzero;fill:url(#linear2);" d="M 30.148438 34.71875 C 29.679688 34.941406 29.125 34.847656 28.757812 34.480469 C 29.207031 34.933594 30.523438 34.613281 30.523438 33.976562 L 30.523438 16.269531 C 30.523438 15.628906 29.207031 15.3125 28.757812 15.761719 C 29.125 15.394531 29.679688 15.300781 30.148438 15.527344 L 34.171875 16.917969 C 34.59375 17.121094 34.863281 17.550781 34.863281 18.019531 L 34.863281 32.226562 C 34.863281 32.695312 34.59375 33.121094 34.171875 33.324219 Z M 30.148438 34.71875 "/>
</g>
</svg>
