<?xml version="1.0" encoding="UTF-8"?>
<svg xmlns="http://www.w3.org/2000/svg" xmlns:xlink="http://www.w3.org/1999/xlink" width="35px" height="35px" viewBox="0 0 35 35" version="1.1">
<g id="surface1">
<path style=" stroke:none;fill-rule:nonzero;fill:rgb(88.627452%,26.274511%,16.078432%);fill-opacity:1;" d="M 34.113281 14.050781 L 34.0625 13.925781 L 29.386719 1.71875 C 29.292969 1.476562 29.121094 1.273438 28.90625 1.136719 C 28.457031 0.859375 27.886719 0.890625 27.472656 1.214844 C 27.273438 1.375 27.128906 1.597656 27.058594 1.84375 L 23.898438 11.507812 L 11.109375 11.507812 L 7.949219 1.84375 C 7.882812 1.59375 7.738281 1.375 7.535156 1.214844 C 7.121094 0.890625 6.550781 0.859375 6.105469 1.136719 C 5.886719 1.273438 5.71875 1.476562 5.621094 1.714844 L 0.9375 13.917969 L 0.890625 14.042969 C -0.492188 17.65625 0.679688 21.75 3.769531 24.082031 L 3.785156 24.09375 L 3.828125 24.125 L 10.957031 29.460938 L 14.480469 32.128906 L 16.628906 33.75 C 17.144531 34.144531 17.859375 34.144531 18.375 33.75 L 20.523438 32.128906 L 24.046875 29.460938 L 31.21875 24.09375 L 31.234375 24.078125 C 34.316406 21.746094 35.492188 17.660156 34.113281 14.050781 Z M 34.113281 14.050781 "/>
<path style=" stroke:none;fill-rule:nonzero;fill:rgb(98.823529%,42.745098%,14.901961%);fill-opacity:1;" d="M 34.113281 14.050781 L 34.0625 13.925781 C 31.785156 14.394531 29.636719 15.359375 27.773438 16.753906 L 17.5 24.523438 C 21 27.167969 24.042969 29.46875 24.042969 29.46875 L 31.214844 24.101562 L 31.230469 24.085938 C 34.320312 21.753906 35.492188 17.664062 34.113281 14.050781 Z M 34.113281 14.050781 "/>
<path style=" stroke:none;fill-rule:nonzero;fill:rgb(98.823529%,63.921571%,14.901961%);fill-opacity:1;" d="M 10.957031 29.46875 L 14.480469 32.136719 L 16.628906 33.757812 C 17.144531 34.148438 17.859375 34.148438 18.375 33.757812 L 20.523438 32.136719 L 24.046875 29.46875 C 24.046875 29.46875 21 27.160156 17.5 24.523438 C 15.316406 26.167969 13.136719 27.816406 10.957031 29.46875 Z M 10.957031 29.46875 "/>
<path style=" stroke:none;fill-rule:nonzero;fill:rgb(98.823529%,42.745098%,14.901961%);fill-opacity:1;" d="M 7.222656 16.753906 C 5.363281 15.355469 3.214844 14.390625 0.9375 13.917969 L 0.890625 14.042969 C -0.492188 17.65625 0.679688 21.75 3.769531 24.082031 L 3.785156 24.09375 L 3.828125 24.125 L 10.957031 29.460938 L 17.5 24.515625 Z M 7.222656 16.753906 "/>
</g>
</svg>
