<?xml version="1.0" encoding="UTF-8"?>
<svg xmlns="http://www.w3.org/2000/svg" xmlns:xlink="http://www.w3.org/1999/xlink" width="35px" height="35px" viewBox="0 0 35 35" version="1.1">
<g id="surface1">
<path style=" stroke:none;fill-rule:evenodd;fill:rgb(96.470588%,87.058824%,11.372549%);fill-opacity:1;" d="M -0.0351562 -0.0351562 C 11.632812 -0.0351562 23.300781 -0.0351562 34.964844 -0.0351562 C 34.964844 11.632812 34.964844 23.300781 34.964844 34.964844 C 23.300781 34.964844 11.632812 34.964844 -0.0351562 34.964844 C -0.0351562 23.300781 -0.0351562 11.632812 -0.0351562 -0.0351562 Z M -0.0351562 -0.0351562 "/>
<path style=" stroke:none;fill-rule:evenodd;fill:rgb(0.784314%,0.392157%,0%);fill-opacity:1;" d="M 25.941406 15.824219 C 27.378906 15.726562 28.699219 16.058594 29.90625 16.816406 C 30.464844 17.285156 30.921875 17.832031 31.273438 18.457031 C 30.460938 19.019531 29.628906 19.554688 28.78125 20.0625 C 28.558594 19.832031 28.355469 19.582031 28.164062 19.3125 C 27.46875 18.691406 26.683594 18.542969 25.804688 18.867188 C 25.027344 19.386719 24.835938 20.082031 25.226562 20.953125 C 25.394531 21.125 25.566406 21.292969 25.738281 21.464844 C 26.890625 22.027344 28.050781 22.574219 29.222656 23.105469 C 31.957031 24.492188 32.835938 26.644531 31.855469 29.566406 C 31.175781 30.859375 30.113281 31.671875 28.675781 31.992188 C 26.394531 32.5625 24.296875 32.171875 22.386719 30.828125 C 21.722656 30.289062 21.195312 29.640625 20.816406 28.882812 C 21.6875 28.347656 22.5625 27.824219 23.445312 27.308594 C 24.460938 29.019531 25.929688 29.621094 27.855469 29.121094 C 28.855469 28.671875 29.164062 27.933594 28.78125 26.898438 C 28.660156 26.746094 28.535156 26.597656 28.402344 26.453125 C 27.257812 25.8125 26.070312 25.242188 24.847656 24.746094 C 22.246094 23.445312 21.320312 21.382812 22.078125 18.558594 C 22.871094 16.949219 24.15625 16.039062 25.941406 15.824219 Z M 25.941406 15.824219 "/>
<path style=" stroke:none;fill-rule:evenodd;fill:rgb(0.392157%,0.392157%,0%);fill-opacity:1;" d="M 15.757812 16.03125 C 16.851562 16.03125 17.945312 16.03125 19.039062 16.03125 C 19.050781 19.902344 19.039062 23.777344 19.003906 27.652344 C 18.777344 30.683594 17.136719 32.210938 14.082031 32.230469 C 11.828125 32.226562 10.199219 31.222656 9.195312 29.222656 C 10.0625 28.683594 10.941406 28.160156 11.828125 27.652344 C 12.101562 28.109375 12.433594 28.53125 12.816406 28.914062 C 13.574219 29.394531 14.347656 29.414062 15.140625 28.984375 C 15.464844 28.652344 15.660156 28.253906 15.722656 27.789062 C 15.757812 23.867188 15.769531 19.949219 15.757812 16.03125 Z M 15.757812 16.03125 "/>
</g>
</svg>
