<?xml version="1.0" encoding="UTF-8"?>
<svg xmlns="http://www.w3.org/2000/svg" xmlns:xlink="http://www.w3.org/1999/xlink" width="35px" height="35px" viewBox="0 0 35 35" version="1.1">
<g id="surface1">
<path style=" stroke:none;fill-rule:nonzero;fill:rgb(0%,45.490196%,74.117649%);fill-opacity:1;" d="M 13.019531 26.828125 C 13.019531 26.828125 11.714844 27.589844 13.949219 27.84375 C 16.652344 28.152344 18.035156 28.109375 21.015625 27.546875 C 21.015625 27.546875 21.800781 28.035156 22.894531 28.460938 C 16.214844 31.324219 7.773438 28.296875 13.019531 26.828125 Z M 12.203125 23.09375 C 12.203125 23.09375 10.742188 24.175781 12.976562 24.40625 C 15.863281 24.707031 18.144531 24.730469 22.09375 23.96875 C 22.09375 23.96875 22.640625 24.523438 23.5 24.824219 C 15.421875 27.1875 6.421875 25.011719 12.203125 23.09375 Z M 12.203125 23.09375 "/>
<path style=" stroke:none;fill-rule:nonzero;fill:rgb(91.764706%,17.647059%,18.039216%);fill-opacity:1;" d="M 19.085938 16.753906 C 20.734375 18.648438 18.65625 20.355469 18.65625 20.355469 C 18.65625 20.355469 22.835938 18.195312 20.914062 15.492188 C 19.121094 12.972656 17.746094 11.722656 25.191406 7.40625 C 25.191406 7.40625 13.507812 10.324219 19.085938 16.753906 Z M 19.085938 16.753906 "/>
<path style=" stroke:none;fill-rule:nonzero;fill:rgb(0%,45.490196%,74.117649%);fill-opacity:1;" d="M 27.925781 29.59375 C 27.925781 29.59375 28.890625 30.390625 26.859375 31.003906 C 23.003906 32.171875 10.808594 32.523438 7.421875 31.050781 C 6.203125 30.519531 8.488281 29.785156 9.207031 29.632812 C 9.953125 29.46875 10.382812 29.5 10.382812 29.5 C 9.027344 28.546875 1.628906 31.371094 6.625 32.183594 C 20.246094 34.390625 31.457031 31.1875 27.925781 29.59375 Z M 13.648438 19.222656 C 13.648438 19.222656 7.445312 20.695312 11.453125 21.230469 C 13.144531 21.457031 16.515625 21.40625 19.65625 21.140625 C 22.226562 20.925781 24.800781 20.464844 24.800781 20.464844 C 24.800781 20.464844 23.898438 20.851562 23.242188 21.300781 C 16.941406 22.957031 4.773438 22.183594 8.277344 20.492188 C 11.238281 19.058594 13.648438 19.222656 13.648438 19.222656 Z M 24.777344 25.441406 C 31.179688 22.113281 28.21875 18.917969 26.152344 19.347656 C 25.648438 19.453125 25.417969 19.542969 25.417969 19.542969 C 25.417969 19.542969 25.609375 19.25 25.964844 19.121094 C 30.054688 17.683594 33.199219 23.363281 24.648438 25.609375 C 24.648438 25.609375 24.746094 25.519531 24.777344 25.441406 Z M 24.777344 25.441406 "/>
<path style=" stroke:none;fill-rule:nonzero;fill:rgb(91.764706%,17.647059%,18.039216%);fill-opacity:1;" d="M 20.914062 0.433594 C 20.914062 0.433594 24.460938 3.980469 17.550781 9.4375 C 12.011719 13.8125 16.289062 16.308594 17.550781 19.160156 C 14.3125 16.242188 11.941406 13.671875 13.535156 11.28125 C 15.871094 7.769531 22.347656 6.070312 20.914062 0.433594 Z M 20.914062 0.433594 "/>
<path style=" stroke:none;fill-rule:nonzero;fill:rgb(0%,45.490196%,74.117649%);fill-opacity:1;" d="M 14.277344 34.457031 C 20.421875 34.851562 29.863281 34.238281 30.085938 31.332031 C 30.085938 31.332031 29.65625 32.433594 25.007812 33.308594 C 19.761719 34.296875 13.289062 34.179688 9.453125 33.546875 C 9.453125 33.546875 10.238281 34.199219 14.277344 34.457031 Z M 14.277344 34.457031 "/>
</g>
</svg>
