<?xml version="1.0" encoding="UTF-8"?>
<svg xmlns="http://www.w3.org/2000/svg" xmlns:xlink="http://www.w3.org/1999/xlink" width="35px" height="35px" viewBox="0 0 35 35" version="1.1">
<g id="surface1">
<path style=" stroke:none;fill-rule:evenodd;fill:rgb(30.980393%,66.666669%,25.490198%);fill-opacity:1;" d="M 22.640625 9.359375 C 21.929688 7.144531 20.789062 5.179688 19.179688 3.492188 C 18.769531 3.066406 18.320312 2.671875 18.035156 2.140625 C 17.855469 1.804688 17.683594 1.464844 17.511719 1.125 L 17.398438 0.847656 L 17.367188 0.957031 C 17.351562 1.507812 17.039062 1.882812 16.652344 2.234375 C 16.210938 2.625 15.804688 3.054688 15.382812 3.464844 L 14.089844 5.167969 L 13.042969 7.09375 L 12.339844 8.984375 L 12.320312 9.015625 C 11.933594 10.28125 11.746094 11.582031 11.652344 12.898438 C 11.617188 13.390625 11.65625 13.890625 11.683594 14.386719 C 11.722656 15.097656 11.847656 15.796875 12.03125 16.484375 C 12.703125 18.976562 14.066406 21.046875 15.933594 22.808594 C 16.277344 23.132812 16.652344 23.429688 17.015625 23.742188 L 17.175781 24.289062 L 17.324219 25.140625 L 17.394531 26.03125 C 17.394531 26.210938 17.386719 26.394531 17.394531 26.574219 C 17.398438 26.621094 17.460938 26.664062 17.492188 26.707031 L 17.796875 26.8125 L 18.109375 26.933594 L 18.054688 26.144531 L 18.054688 25.367188 L 18.160156 24.179688 L 18.242188 23.921875 L 18.464844 23.523438 C 18.746094 23.296875 19.042969 23.09375 19.296875 22.847656 C 19.753906 22.394531 20.210938 21.9375 20.621094 21.445312 C 21.15625 20.804688 21.613281 20.105469 21.980469 19.359375 C 22.226562 18.855469 22.460938 18.34375 22.652344 17.820312 C 22.820312 17.359375 22.925781 16.875 23.058594 16.398438 L 23.09375 16.296875 C 23.367188 15.015625 23.414062 13.71875 23.3125 12.417969 C 23.230469 11.367188 22.984375 10.351562 22.640625 9.359375 Z M 17.199219 23.105469 C 17.242188 22.894531 17.292969 22.6875 17.332031 22.476562 C 17.292969 22.6875 17.242188 22.894531 17.199219 23.105469 Z M 18.132812 23.253906 L 17.957031 22.867188 L 18.132812 23.253906 L 18.394531 23.472656 Z M 29.113281 28.152344 C 28.886719 27.722656 28.558594 27.394531 28.117188 27.175781 C 27.75 26.996094 27.355469 26.917969 26.953125 26.90625 C 26.648438 26.898438 26.34375 26.914062 26.039062 26.917969 C 25.765625 26.917969 25.496094 26.925781 25.226562 26.921875 C 24.90625 26.917969 24.589844 26.910156 24.273438 26.898438 C 24.21875 26.898438 24.183594 26.910156 24.15625 26.960938 C 24.117188 27.046875 24.074219 27.125 24.027344 27.21875 L 24.078125 27.234375 C 24.238281 27.261719 24.394531 27.285156 24.550781 27.316406 C 24.753906 27.359375 24.84375 27.472656 24.855469 27.644531 C 24.867188 27.886719 24.871094 28.128906 24.871094 28.371094 C 24.867188 29.332031 24.859375 30.292969 24.855469 31.253906 C 24.855469 31.316406 24.851562 31.382812 24.835938 31.445312 C 24.816406 31.511719 24.792969 31.601562 24.742188 31.636719 C 24.652344 31.695312 24.542969 31.734375 24.4375 31.75 C 24.285156 31.777344 24.257812 31.785156 24.210938 31.933594 L 24.191406 32.011719 C 24.167969 32.09375 24.179688 32.109375 24.265625 32.109375 C 24.757812 32.113281 25.25 32.125 25.742188 32.125 C 26.191406 32.121094 26.640625 32.148438 27.089844 32.066406 C 27.511719 31.984375 27.90625 31.847656 28.265625 31.609375 C 28.734375 31.304688 29.070312 30.894531 29.25 30.359375 C 29.390625 29.925781 29.421875 29.488281 29.375 29.035156 C 29.339844 28.722656 29.257812 28.429688 29.113281 28.152344 Z M 28.25 30.796875 C 27.988281 31.285156 27.59375 31.613281 27.03125 31.699219 C 26.679688 31.753906 26.328125 31.738281 25.992188 31.605469 C 25.78125 31.519531 25.699219 31.335938 25.695312 31.121094 C 25.6875 30.910156 25.683594 30.695312 25.683594 30.484375 C 25.683594 29.734375 25.683594 28.988281 25.683594 28.242188 C 25.6875 28.003906 25.691406 27.769531 25.695312 27.535156 C 25.695312 27.367188 25.730469 27.3125 25.894531 27.300781 C 26.601562 27.238281 27.28125 27.316406 27.84375 27.816406 C 28.191406 28.125 28.386719 28.519531 28.46875 28.972656 C 28.503906 29.160156 28.515625 29.351562 28.535156 29.542969 C 28.519531 29.980469 28.460938 30.40625 28.25 30.796875 Z M 34.207031 29.984375 C 34.070312 29.644531 33.804688 29.433594 33.46875 29.296875 C 33.355469 29.25 33.238281 29.210938 33.117188 29.164062 L 33.160156 29.136719 C 33.292969 29.050781 33.441406 28.984375 33.554688 28.878906 C 33.832031 28.625 33.945312 28.304688 33.894531 27.921875 C 33.839844 27.5625 33.660156 27.296875 33.339844 27.125 C 33.046875 26.96875 32.730469 26.910156 32.402344 26.910156 C 31.839844 26.914062 31.273438 26.921875 30.707031 26.921875 C 30.515625 26.921875 30.320312 26.90625 30.125 26.90625 C 30.085938 26.90625 30.03125 26.914062 30.015625 26.9375 C 29.96875 27.007812 29.941406 27.085938 29.910156 27.164062 C 29.890625 27.207031 29.910156 27.230469 29.960938 27.238281 C 30.09375 27.257812 30.230469 27.277344 30.367188 27.300781 C 30.554688 27.328125 30.644531 27.425781 30.65625 27.613281 L 30.660156 27.726562 C 30.660156 28.316406 30.664062 28.90625 30.660156 29.496094 C 30.65625 30.082031 30.652344 30.671875 30.644531 31.261719 C 30.640625 31.335938 30.632812 31.410156 30.621094 31.484375 C 30.605469 31.59375 30.546875 31.671875 30.433594 31.695312 L 30.109375 31.757812 C 30.074219 31.765625 30.019531 31.765625 30.003906 31.789062 C 29.941406 31.875 29.894531 31.972656 29.902344 32.089844 L 29.933594 32.097656 L 31.015625 32.125 L 31.234375 32.125 C 31.605469 32.121094 31.980469 32.125 32.355469 32.109375 C 32.757812 32.085938 33.140625 31.96875 33.492188 31.761719 C 33.863281 31.539062 34.152344 31.25 34.253906 30.8125 C 34.320312 30.535156 34.320312 30.253906 34.207031 29.984375 Z M 31.460938 27.476562 C 31.464844 27.359375 31.515625 27.304688 31.632812 27.304688 C 31.921875 27.296875 32.210938 27.296875 32.492188 27.398438 C 32.851562 27.527344 33.074219 27.835938 33.070312 28.21875 C 33.070312 28.363281 33.070312 28.507812 33.015625 28.648438 C 32.910156 28.925781 32.707031 29.074219 32.417969 29.101562 C 32.265625 29.117188 32.113281 29.117188 31.980469 29.125 L 31.53125 29.105469 C 31.472656 29.101562 31.445312 29.078125 31.445312 29.015625 Z M 33.324219 31.164062 C 33.179688 31.480469 32.914062 31.644531 32.585938 31.703125 C 32.320312 31.75 32.054688 31.734375 31.792969 31.667969 C 31.601562 31.617188 31.523438 31.464844 31.484375 31.292969 C 31.457031 31.175781 31.460938 31.039062 31.460938 30.921875 C 31.457031 30.734375 31.460938 30.351562 31.460938 30.351562 L 31.457031 30.351562 C 31.457031 30.078125 31.457031 29.839844 31.453125 29.578125 C 31.453125 29.523438 31.464844 29.496094 31.535156 29.496094 C 31.777344 29.503906 32.023438 29.507812 32.269531 29.515625 C 32.492188 29.527344 32.695312 29.589844 32.890625 29.695312 C 33.183594 29.855469 33.359375 30.097656 33.410156 30.429688 C 33.445312 30.683594 33.429688 30.933594 33.324219 31.164062 Z M 6.367188 31.460938 L 6.371094 29.972656 C 6.371094 29.75 6.34375 29.53125 6.269531 29.320312 C 6.070312 28.734375 5.511719 28.46875 4.929688 28.679688 C 4.667969 28.773438 4.429688 28.917969 4.203125 29.082031 C 4.074219 29.175781 4.074219 29.175781 3.976562 29.042969 C 3.707031 28.65625 3.324219 28.523438 2.875 28.664062 C 2.585938 28.757812 2.332031 28.914062 2.09375 29.097656 C 2.070312 29.113281 2.027344 29.132812 2.011719 29.121094 C 1.988281 29.105469 1.972656 29.066406 1.976562 29.035156 L 1.992188 28.773438 C 1.992188 28.71875 1.980469 28.660156 1.976562 28.601562 C 1.867188 28.640625 1.78125 28.679688 1.691406 28.699219 C 1.410156 28.769531 1.128906 28.832031 0.847656 28.894531 C 0.78125 28.910156 0.707031 28.929688 0.703125 29.011719 C 0.695312 29.085938 0.769531 29.097656 0.828125 29.121094 C 0.949219 29.171875 1.066406 29.222656 1.1875 29.273438 C 1.289062 29.320312 1.324219 29.398438 1.324219 29.507812 C 1.324219 29.96875 1.324219 30.429688 1.324219 30.890625 C 1.320312 31.078125 1.3125 31.261719 1.304688 31.449219 C 1.296875 31.617188 1.242188 31.6875 1.078125 31.726562 C 0.996094 31.75 0.90625 31.765625 0.820312 31.785156 C 0.804688 31.789062 0.769531 31.800781 0.769531 31.8125 C 0.765625 31.894531 0.761719 31.976562 0.777344 32.054688 C 0.777344 32.070312 0.863281 32.070312 0.914062 32.074219 L 0.945312 32.074219 C 1.277344 32.066406 1.605469 32.0625 1.9375 32.058594 C 2.113281 32.058594 2.289062 32.058594 2.480469 32.058594 L 2.5 31.792969 C 2.390625 31.773438 2.292969 31.757812 2.199219 31.738281 C 2.046875 31.703125 1.984375 31.625 1.980469 31.472656 L 1.976562 31.257812 C 1.976562 30.695312 1.972656 30.132812 1.972656 29.570312 C 1.972656 29.488281 2.007812 29.421875 2.078125 29.375 C 2.230469 29.269531 2.390625 29.1875 2.570312 29.144531 C 2.945312 29.046875 3.269531 29.179688 3.414062 29.5 C 3.460938 29.601562 3.496094 29.710938 3.507812 29.820312 C 3.558594 30.386719 3.539062 30.949219 3.503906 31.511719 C 3.5 31.636719 3.441406 31.695312 3.320312 31.726562 L 3.039062 31.785156 C 3.015625 31.792969 2.984375 31.777344 2.980469 31.796875 C 2.976562 31.875 2.980469 31.992188 2.980469 31.992188 L 3.046875 31.992188 L 3.90625 32.019531 C 4.140625 32.019531 4.375 32.046875 4.613281 32.054688 C 4.652344 32.054688 4.691406 32.0625 4.695312 32.011719 C 4.699219 31.9375 4.695312 31.863281 4.691406 31.785156 L 4.644531 31.777344 L 4.402344 31.722656 C 4.242188 31.6875 4.183594 31.625 4.183594 31.457031 C 4.183594 31.050781 4.1875 30.644531 4.183594 30.238281 C 4.183594 30.003906 4.171875 29.773438 4.15625 29.539062 C 4.152344 29.476562 4.164062 29.4375 4.210938 29.402344 C 4.355469 29.300781 4.515625 29.21875 4.6875 29.175781 C 5.214844 29.035156 5.648438 29.324219 5.675781 29.871094 C 5.703125 30.398438 5.691406 30.925781 5.6875 31.453125 C 5.6875 31.636719 5.625 31.691406 5.445312 31.742188 L 5.382812 31.757812 C 5.195312 31.800781 5.199219 31.800781 5.210938 31.996094 C 5.210938 32.058594 5.230469 32.074219 5.296875 32.074219 C 5.671875 32.066406 6.050781 32.0625 6.425781 32.058594 C 6.582031 32.058594 6.734375 32.058594 6.902344 32.058594 L 6.9375 31.804688 C 6.789062 31.765625 6.652344 31.734375 6.523438 31.691406 C 6.40625 31.652344 6.367188 31.582031 6.367188 31.460938 Z M 19.351562 29.207031 C 19.507812 29.0625 19.507812 28.871094 19.464844 28.660156 C 19.339844 28.789062 19.203125 28.847656 19.046875 28.859375 C 18.835938 28.875 18.628906 28.855469 18.433594 28.773438 C 17.902344 28.546875 17.378906 28.5625 16.855469 28.8125 C 16.417969 29.023438 16.148438 29.347656 16.121094 29.84375 C 16.105469 30.164062 16.164062 30.464844 16.375 30.71875 C 16.503906 30.867188 16.667969 30.96875 16.851562 31.035156 C 16.929688 31.0625 16.9375 31.101562 16.871094 31.152344 C 16.820312 31.191406 16.769531 31.222656 16.71875 31.257812 C 16.605469 31.324219 16.496094 31.394531 16.382812 31.460938 C 16.316406 31.503906 16.292969 31.554688 16.316406 31.632812 C 16.378906 31.859375 16.542969 31.992188 16.746094 32.089844 L 16.820312 32.140625 L 16.753906 32.207031 C 16.554688 32.367188 16.347656 32.519531 16.15625 32.691406 C 15.996094 32.835938 15.945312 33.027344 15.992188 33.242188 C 16.089844 33.667969 16.371094 33.929688 16.773438 34.050781 C 17.472656 34.261719 18.128906 34.140625 18.726562 33.726562 C 19.082031 33.480469 19.335938 33.160156 19.414062 32.71875 C 19.5 32.226562 19.226562 31.796875 18.734375 31.707031 C 18.410156 31.648438 18.074219 31.632812 17.746094 31.59375 C 17.59375 31.578125 17.4375 31.566406 17.289062 31.53125 C 17.160156 31.5 17.097656 31.398438 17.109375 31.296875 C 17.121094 31.195312 17.226562 31.105469 17.347656 31.09375 C 17.589844 31.074219 17.832031 31.035156 18.054688 30.933594 C 18.652344 30.660156 18.925781 30.183594 18.859375 29.542969 C 18.847656 29.457031 18.828125 29.371094 18.8125 29.269531 C 19.003906 29.300781 19.195312 29.351562 19.351562 29.207031 Z M 17.542969 32.21875 C 17.785156 32.226562 18.0625 32.242188 18.328125 32.320312 C 18.5625 32.386719 18.753906 32.507812 18.8125 32.769531 C 18.882812 33.085938 18.730469 33.398438 18.421875 33.570312 C 18.136719 33.726562 17.824219 33.738281 17.511719 33.707031 C 17.238281 33.679688 16.996094 33.585938 16.800781 33.386719 C 16.546875 33.125 16.542969 32.761719 16.800781 32.5 C 17.03125 32.265625 17.152344 32.214844 17.542969 32.21875 Z M 18.152344 30.316406 C 18.007812 30.765625 17.597656 30.828125 17.277344 30.683594 C 17.003906 30.5625 16.882812 30.320312 16.820312 30.042969 C 16.796875 29.9375 16.789062 29.828125 16.777344 29.71875 C 16.78125 29.5625 16.808594 29.414062 16.875 29.273438 C 17.078125 28.84375 17.585938 28.871094 17.863281 29.066406 C 17.984375 29.148438 18.066406 29.261719 18.117188 29.398438 C 18.234375 29.699219 18.246094 30.007812 18.152344 30.316406 Z M 15.589844 31.753906 C 15.492188 31.738281 15.394531 31.71875 15.300781 31.691406 C 15.132812 31.640625 15.113281 31.609375 15.109375 31.433594 C 15.105469 30.941406 15.101562 30.453125 15.097656 29.960938 C 15.09375 29.742188 15.066406 29.523438 15 29.3125 C 14.824219 28.757812 14.277344 28.460938 13.734375 28.625 C 13.433594 28.714844 13.171875 28.886719 12.929688 29.085938 L 12.84375 29.152344 L 12.84375 29.0625 C 12.847656 28.957031 12.859375 28.851562 12.859375 28.75 C 12.859375 28.695312 12.839844 28.640625 12.828125 28.589844 C 12.621094 28.652344 12.4375 28.714844 12.25 28.765625 C 12.058594 28.8125 11.867188 28.84375 11.675781 28.882812 C 11.582031 28.902344 11.511719 28.957031 11.511719 29.023438 C 11.515625 29.117188 11.59375 29.132812 11.660156 29.160156 C 11.78125 29.210938 11.902344 29.261719 12.019531 29.3125 C 12.105469 29.351562 12.140625 29.421875 12.140625 29.515625 C 12.132812 30.152344 12.128906 30.789062 12.121094 31.425781 C 12.117188 31.625 12.066406 31.679688 11.867188 31.722656 L 11.78125 31.742188 C 11.597656 31.773438 11.59375 31.78125 11.605469 31.972656 L 11.605469 32.003906 C 11.605469 32.078125 11.636719 32.105469 11.714844 32.101562 C 12.199219 32.097656 12.6875 32.09375 13.175781 32.097656 C 13.382812 32.097656 13.40625 32.082031 13.402344 31.867188 L 13.390625 31.773438 C 13.273438 31.753906 13.160156 31.738281 13.046875 31.714844 C 12.929688 31.691406 12.886719 31.640625 12.878906 31.523438 C 12.867188 31.414062 12.863281 31.304688 12.863281 31.195312 C 12.855469 30.695312 12.851562 30.195312 12.851562 29.691406 C 12.851562 29.566406 12.875 29.449219 12.988281 29.367188 C 13.164062 29.246094 13.355469 29.175781 13.570312 29.160156 C 14.003906 29.128906 14.335938 29.386719 14.359375 29.820312 C 14.386719 30.355469 14.378906 30.890625 14.386719 31.425781 C 14.386719 31.464844 14.378906 31.507812 14.371094 31.546875 C 14.363281 31.625 14.324219 31.683594 14.246094 31.703125 C 14.167969 31.722656 14.089844 31.742188 14.011719 31.753906 C 13.890625 31.769531 13.890625 31.769531 13.878906 31.890625 L 13.882812 31.96875 C 13.898438 32.105469 13.898438 32.101562 14.039062 32.101562 C 14.507812 32.097656 14.980469 32.09375 15.449219 32.097656 C 15.648438 32.097656 15.660156 32.085938 15.664062 31.882812 L 15.660156 31.835938 C 15.664062 31.785156 15.640625 31.761719 15.589844 31.753906 Z M 22.164062 28.660156 C 21.671875 28.539062 21.203125 28.628906 20.757812 28.859375 C 20.328125 29.082031 20.039062 29.425781 19.929688 29.902344 C 19.816406 30.386719 19.871094 30.855469 20.082031 31.304688 C 20.222656 31.59375 20.433594 31.820312 20.726562 31.964844 C 21.40625 32.308594 22.238281 32.152344 22.769531 31.695312 C 23.191406 31.332031 23.34375 30.851562 23.355469 30.257812 C 23.347656 30.195312 23.34375 30.082031 23.328125 29.96875 C 23.238281 29.320312 22.789062 28.8125 22.164062 28.660156 Z M 22.539062 31.160156 C 22.40625 31.679688 21.960938 31.90625 21.457031 31.730469 C 21.203125 31.640625 21.011719 31.46875 20.882812 31.234375 C 20.585938 30.699219 20.527344 30.128906 20.695312 29.542969 C 20.808594 29.152344 21.128906 28.941406 21.511719 28.96875 C 21.851562 28.992188 22.113281 29.15625 22.304688 29.433594 C 22.507812 29.726562 22.585938 30.058594 22.605469 30.40625 C 22.609375 30.464844 22.605469 30.519531 22.605469 30.574219 L 22.632812 30.578125 C 22.601562 30.773438 22.585938 30.972656 22.539062 31.160156 Z M 9.75 28.648438 C 9.234375 28.53125 8.746094 28.648438 8.296875 28.914062 C 7.90625 29.140625 7.652344 29.480469 7.558594 29.925781 C 7.46875 30.34375 7.503906 30.75 7.652344 31.148438 C 7.742188 31.390625 7.875 31.605469 8.078125 31.773438 C 8.496094 32.121094 8.988281 32.210938 9.507812 32.113281 C 9.949219 32.03125 10.339844 31.835938 10.621094 31.46875 C 10.886719 31.125 10.984375 30.730469 10.996094 30.300781 C 10.980469 30.167969 10.976562 30.027344 10.949219 29.898438 C 10.804688 29.238281 10.417969 28.800781 9.75 28.648438 Z M 10.175781 31.160156 C 10.046875 31.671875 9.597656 31.910156 9.097656 31.730469 C 8.777344 31.617188 8.566406 31.382812 8.433594 31.082031 C 8.222656 30.597656 8.179688 30.09375 8.316406 29.582031 C 8.421875 29.195312 8.738281 28.90625 9.222656 28.976562 C 9.519531 29.015625 9.75 29.167969 9.925781 29.410156 C 10.15625 29.734375 10.234375 30.109375 10.246094 30.5 L 10.246094 30.582031 L 10.265625 30.585938 C 10.234375 30.777344 10.222656 30.972656 10.175781 31.160156 Z M 10.175781 31.160156 "/>
</g>
</svg>
