<?xml version="1.0" encoding="UTF-8"?>
<svg xmlns="http://www.w3.org/2000/svg" xmlns:xlink="http://www.w3.org/1999/xlink" width="35px" height="35px" viewBox="0 0 35 35" version="1.1">
<defs>
<filter id="alpha" filterUnits="objectBoundingBox" x="0%" y="0%" width="100%" height="100%">
  <feColorMatrix type="matrix" in="SourceGraphic" values="0 0 0 0 1 0 0 0 0 1 0 0 0 0 1 0 0 0 1 0"/>
</filter>
<mask id="mask0">
  <g filter="url(#alpha)">
<rect x="0" y="0" width="35" height="35" style="fill:rgb(0%,0%,0%);fill-opacity:0.2;stroke:none;"/>
  </g>
</mask>
<clipPath id="clip1">
  <rect x="0" y="0" width="35" height="35"/>
</clipPath>
<g id="surface5" clip-path="url(#clip1)">
<path style=" stroke:none;fill-rule:nonzero;fill:rgb(0%,0%,0%);fill-opacity:1;" d="M 8.777344 8.75 C 7.921875 8.730469 7.519531 9.324219 7.695312 10.34375 C 7.753906 10.671875 8.042969 11.140625 8.664062 11.921875 C 9.351562 12.785156 9.628906 13.257812 9.929688 14.078125 C 10.40625 15.367188 10.625 15.796875 11.011719 16.203125 C 11.308594 16.515625 11.308594 16.515625 11.109375 17.15625 C 10.796875 18.144531 10.730469 20.128906 10.980469 21.0625 C 11.355469 22.460938 11.816406 23.09375 12.460938 23.09375 C 12.917969 23.09375 13.296875 22.710938 13.429688 22.105469 C 13.476562 21.894531 13.566406 21.597656 13.625 21.441406 C 13.730469 21.167969 13.757812 21.191406 14.164062 21.855469 C 14.402344 22.242188 14.851562 22.816406 15.167969 23.132812 C 15.894531 23.863281 16.890625 24.6875 16.960938 24.617188 C 16.992188 24.589844 16.703125 24.15625 16.316406 23.65625 C 15.933594 23.15625 15.207031 21.996094 14.703125 21.078125 C 14.117188 20.003906 13.71875 19.40625 13.59375 19.402344 C 13.191406 19.402344 12.8125 20.039062 12.59375 21.097656 C 12.339844 22.3125 11.898438 22.109375 11.535156 20.609375 C 11.328125 19.742188 11.4375 18.578125 11.824219 17.488281 C 12 16.992188 12.144531 16.53125 12.144531 16.46875 C 12.144531 16.40625 11.863281 15.875 11.519531 15.289062 C 11.175781 14.699219 10.769531 13.867188 10.621094 13.4375 C 10.253906 12.394531 10.082031 12.089844 9.351562 11.203125 C 8.601562 10.292969 8.527344 9.871094 9.128906 9.875 C 9.59375 9.875 10.34375 10.191406 11.101562 10.699219 C 11.578125 11.019531 11.738281 11.0625 12.507812 11.0625 C 13.472656 11.0625 13.679688 11.144531 15.015625 12.023438 C 16.378906 12.917969 17.390625 13.753906 18.09375 14.550781 C 18.71875 15.261719 19.058594 15.878906 20.894531 19.644531 C 21.597656 21.089844 22.222656 21.789062 23.085938 22.085938 C 24.417969 22.546875 24.871094 22.757812 25.457031 23.179688 L 26.078125 23.621094 L 25.660156 23.703125 C 25.429688 23.746094 24.929688 23.820312 24.546875 23.863281 C 23.753906 23.957031 23.230469 24.285156 23.230469 24.699219 C 23.230469 25.164062 24.820312 26.5 26.410156 27.371094 C 27.175781 27.789062 27.910156 28.199219 28.042969 28.285156 C 28.402344 28.515625 28.496094 28.488281 28.40625 28.183594 C 28.214844 27.554688 27.558594 26.9375 25.75 25.675781 C 24.683594 24.933594 24.675781 24.960938 26.09375 24.820312 C 27.105469 24.722656 27.617188 24.546875 27.617188 24.304688 C 27.617188 24.191406 27.101562 23.601562 26.472656 22.988281 C 25.488281 22.03125 25.15625 21.792969 24.074219 21.265625 C 22.597656 20.546875 22.058594 19.976562 21.71875 18.765625 C 21.210938 16.964844 19.84375 14.84375 18.03125 13.046875 C 16.160156 11.191406 14.371094 10.164062 12.730469 10.003906 C 12.066406 9.9375 11.722656 9.839844 11.375 9.605469 C 10.792969 9.210938 9.4375 8.765625 8.777344 8.75 Z M 12.019531 12.035156 C 11.882812 12.023438 11.765625 12.042969 11.6875 12.097656 C 11.386719 12.300781 11.421875 12.550781 11.773438 12.707031 C 11.941406 12.777344 12.175781 13.035156 12.296875 13.277344 C 12.707031 14.085938 13.335938 13.542969 13.054688 12.625 C 12.964844 12.332031 12.421875 12.058594 12.019531 12.035156 Z M 12.019531 12.035156 "/>
</g>
<mask id="mask1">
  <g filter="url(#alpha)">
<rect x="0" y="0" width="35" height="35" style="fill:rgb(0%,0%,0%);fill-opacity:0.101961;stroke:none;"/>
  </g>
</mask>
<clipPath id="clip2">
  <rect x="0" y="0" width="35" height="35"/>
</clipPath>
<g id="surface8" clip-path="url(#clip2)">
<path style=" stroke:none;fill-rule:nonzero;fill:rgb(100%,100%,100%);fill-opacity:1;" d="M 3.71875 2.1875 C 2.871094 2.1875 2.1875 2.871094 2.1875 3.71875 L 2.1875 4.8125 C 2.1875 3.964844 2.871094 3.28125 3.71875 3.28125 L 31.28125 3.28125 C 32.128906 3.28125 32.8125 3.964844 32.8125 4.8125 L 32.8125 3.71875 C 32.8125 2.871094 32.128906 2.1875 31.28125 2.1875 Z M 3.71875 2.1875 "/>
</g>
<mask id="mask2">
  <g filter="url(#alpha)">
<rect x="0" y="0" width="35" height="35" style="fill:rgb(0%,0%,0%);fill-opacity:0.2;stroke:none;"/>
  </g>
</mask>
<clipPath id="clip3">
  <rect x="0" y="0" width="35" height="35"/>
</clipPath>
<g id="surface11" clip-path="url(#clip3)">
<path style=" stroke:none;fill-rule:nonzero;fill:rgb(0%,0%,0%);fill-opacity:1;" d="M 2.1875 31.28125 L 2.1875 32.375 C 2.1875 33.222656 2.871094 33.90625 3.71875 33.90625 L 31.28125 33.90625 C 32.128906 33.90625 32.8125 33.222656 32.8125 32.375 L 32.8125 31.28125 C 32.8125 32.128906 32.128906 32.8125 31.28125 32.8125 L 3.71875 32.8125 C 2.871094 32.8125 2.1875 32.128906 2.1875 31.28125 Z M 2.1875 31.28125 "/>
</g>
</defs>
<g id="surface1">
<path style=" stroke:none;fill-rule:nonzero;fill:rgb(14.901961%,33.333334%,48.627451%);fill-opacity:1;" d="M 32.8125 31.28125 L 32.8125 3.71875 C 32.8125 2.875 32.125 2.1875 31.28125 2.1875 L 3.71875 2.1875 C 2.875 2.1875 2.1875 2.875 2.1875 3.71875 L 2.1875 31.28125 C 2.1875 32.125 2.875 32.8125 3.71875 32.8125 L 31.28125 32.8125 C 32.125 32.8125 32.8125 32.125 32.8125 31.28125 Z M 32.8125 31.28125 "/>
<use xlink:href="#surface5" mask="url(#mask0)"/>
<path style=" stroke:none;fill-rule:nonzero;fill:rgb(100%,100%,100%);fill-opacity:1;" d="M 8.777344 7.65625 C 7.921875 7.636719 7.519531 8.230469 7.695312 9.25 C 7.753906 9.578125 8.042969 10.046875 8.664062 10.828125 C 9.351562 11.691406 9.628906 12.164062 9.929688 12.980469 C 10.40625 14.269531 10.625 14.703125 11.007812 15.105469 C 11.308594 15.421875 11.308594 15.421875 11.109375 16.0625 C 10.796875 17.050781 10.730469 19.035156 10.980469 19.96875 C 11.355469 21.367188 11.816406 22 12.460938 22 C 12.917969 22 13.296875 21.617188 13.429688 21.011719 C 13.476562 20.800781 13.566406 20.503906 13.625 20.347656 C 13.730469 20.074219 13.757812 20.09375 14.164062 20.761719 C 14.402344 21.148438 14.851562 21.722656 15.167969 22.039062 C 15.894531 22.769531 16.890625 23.59375 16.960938 23.523438 C 16.992188 23.496094 16.703125 23.0625 16.316406 22.5625 C 15.929688 22.0625 15.207031 20.902344 14.703125 19.984375 C 14.117188 18.910156 13.71875 18.308594 13.59375 18.308594 C 13.191406 18.308594 12.8125 18.945312 12.59375 20 C 12.339844 21.21875 11.898438 21.015625 11.535156 19.515625 C 11.328125 18.648438 11.4375 17.484375 11.824219 16.394531 C 12 15.898438 12.144531 15.4375 12.144531 15.375 C 12.144531 15.3125 11.863281 14.78125 11.519531 14.195312 C 11.171875 13.605469 10.769531 12.773438 10.621094 12.34375 C 10.253906 11.300781 10.082031 10.996094 9.351562 10.109375 C 8.601562 9.199219 8.527344 8.777344 9.128906 8.78125 C 9.59375 8.78125 10.34375 9.097656 11.097656 9.605469 C 11.578125 9.925781 11.742188 9.96875 12.507812 9.96875 C 13.472656 9.96875 13.679688 10.046875 15.015625 10.929688 C 16.375 11.824219 17.390625 12.660156 18.09375 13.457031 C 18.71875 14.167969 19.058594 14.785156 20.894531 18.550781 C 21.597656 19.996094 22.222656 20.695312 23.085938 20.992188 C 24.417969 21.453125 24.871094 21.664062 25.457031 22.082031 L 26.078125 22.527344 L 25.660156 22.609375 C 25.429688 22.652344 24.929688 22.726562 24.546875 22.769531 C 23.75 22.863281 23.230469 23.191406 23.230469 23.605469 C 23.230469 24.070312 24.816406 25.40625 26.410156 26.273438 C 27.175781 26.695312 27.910156 27.105469 28.042969 27.191406 C 28.402344 27.421875 28.496094 27.394531 28.40625 27.09375 C 28.210938 26.460938 27.558594 25.84375 25.746094 24.582031 C 24.683594 23.839844 24.675781 23.867188 26.09375 23.726562 C 27.105469 23.625 27.617188 23.453125 27.617188 23.210938 C 27.617188 23.097656 27.101562 22.507812 26.472656 21.894531 C 25.488281 20.933594 25.15625 20.699219 24.074219 20.167969 C 22.597656 19.453125 22.058594 18.882812 21.71875 17.671875 C 21.210938 15.867188 19.847656 13.75 18.03125 11.953125 C 16.160156 10.097656 14.371094 9.070312 12.730469 8.910156 C 12.066406 8.84375 11.722656 8.742188 11.378906 8.511719 C 10.792969 8.117188 9.4375 7.671875 8.777344 7.65625 Z M 12.019531 10.941406 C 11.882812 10.929688 11.769531 10.949219 11.6875 11.003906 C 11.386719 11.207031 11.425781 11.457031 11.773438 11.613281 C 11.941406 11.6875 12.175781 11.941406 12.296875 12.183594 C 12.707031 12.992188 13.335938 12.449219 13.054688 11.527344 C 12.964844 11.238281 12.421875 10.964844 12.019531 10.941406 Z M 12.019531 10.941406 "/>
<use xlink:href="#surface8" mask="url(#mask1)"/>
<use xlink:href="#surface11" mask="url(#mask2)"/>
</g>
</svg>
