<?xml version="1.0" encoding="UTF-8"?>
<svg xmlns="http://www.w3.org/2000/svg" xmlns:xlink="http://www.w3.org/1999/xlink" width="35px" height="35px" viewBox="0 0 35 35" version="1.1">
<g id="surface1">
<path style=" stroke:none;fill-rule:nonzero;fill:rgb(46.27451%,81.568629%,29.411766%);fill-opacity:1;" d="M 16.695312 34.238281 C 17.191406 34.523438 17.804688 34.523438 18.300781 34.238281 L 31.589844 26.566406 C 32.089844 26.28125 32.394531 25.75 32.394531 25.175781 L 32.394531 9.828125 C 32.394531 9.253906 32.089844 8.722656 31.59375 8.4375 L 18.300781 0.761719 C 17.804688 0.472656 17.191406 0.472656 16.695312 0.761719 L 3.410156 8.4375 C 2.910156 8.722656 2.605469 9.253906 2.605469 9.828125 L 2.605469 25.179688 C 2.605469 25.75 2.910156 26.28125 3.410156 26.566406 L 16.695312 34.238281 "/>
<path style=" stroke:none;fill-rule:nonzero;fill:rgb(30.980393%,30.19608%,24.705882%);fill-opacity:1;" d="M 26.105469 13.839844 L 25.511719 13.5 C 26.421875 12.15625 26.96875 10.132812 26.285156 7.113281 C 26.285156 7.113281 24.746094 11.421875 21.65625 11.28125 L 18.035156 9.195312 C 17.898438 9.117188 17.746094 9.074219 17.589844 9.066406 L 17.507812 9.066406 C 17.351562 9.074219 17.199219 9.117188 17.0625 9.195312 L 13.441406 11.28125 C 10.351562 11.421875 8.8125 7.113281 8.8125 7.113281 C 8.128906 10.132812 8.675781 12.15625 9.585938 13.5 L 8.992188 13.839844 C 8.691406 14.015625 8.503906 14.339844 8.503906 14.6875 L 8.523438 27.191406 C 8.523438 27.367188 8.613281 27.527344 8.765625 27.613281 C 8.914062 27.703125 9.101562 27.703125 9.25 27.613281 L 14.046875 24.867188 C 14.347656 24.6875 14.535156 24.367188 14.535156 24.023438 L 14.535156 18.179688 C 14.53125 17.832031 14.71875 17.507812 15.019531 17.335938 L 17.0625 16.160156 C 17.210938 16.074219 17.378906 16.027344 17.550781 16.027344 C 17.71875 16.027344 17.886719 16.070312 18.035156 16.160156 L 20.078125 17.335938 C 20.378906 17.507812 20.566406 17.832031 20.566406 18.179688 L 20.566406 24.023438 C 20.566406 24.367188 20.75 24.691406 21.054688 24.867188 L 25.847656 27.613281 C 25.996094 27.703125 26.1875 27.703125 26.335938 27.613281 C 26.484375 27.527344 26.578125 27.367188 26.578125 27.191406 L 26.59375 14.6875 C 26.59375 14.339844 26.40625 14.015625 26.105469 13.839844 Z M 26.105469 13.839844 "/>
</g>
</svg>
