<?xml version="1.0" encoding="UTF-8"?>
<svg xmlns="http://www.w3.org/2000/svg" xmlns:xlink="http://www.w3.org/1999/xlink" width="35px" height="35px" viewBox="0 0 35 35" version="1.1">
<g id="surface1">
<path style=" stroke:none;fill-rule:nonzero;fill:rgb(51.372552%,80.392158%,16.078432%);fill-opacity:1;" d="M 30.835938 8.292969 L 18.777344 1.292969 C 18.019531 0.859375 17.027344 0.859375 16.261719 1.292969 L 4.074219 8.292969 C 3.289062 8.746094 2.734375 9.59375 2.734375 10.5 L 2.734375 24.484375 C 2.734375 25.394531 3.304688 26.242188 4.089844 26.695312 L 7.308594 28.523438 C 8.847656 29.28125 9.390625 29.28125 10.089844 29.28125 C 12.371094 29.28125 13.671875 27.90625 13.671875 25.5 L 13.671875 11.695312 C 13.671875 11.5 13.570312 11.210938 13.378906 11.210938 L 11.839844 11.210938 C 11.648438 11.210938 11.210938 11.5 11.210938 11.695312 L 11.210938 25.5 C 11.210938 26.566406 10.246094 27.628906 8.445312 26.726562 L 5.121094 24.808594 C 5.003906 24.746094 4.921875 24.621094 4.921875 24.484375 L 4.921875 10.5 C 4.921875 10.371094 5.074219 10.238281 5.191406 10.171875 L 17.335938 3.179688 C 17.449219 3.117188 17.617188 3.117188 17.730469 3.179688 L 29.730469 10.167969 C 29.84375 10.238281 29.804688 10.367188 29.804688 10.5 L 29.804688 24.484375 C 29.804688 24.621094 29.855469 24.75 29.742188 24.8125 L 17.6875 31.808594 C 17.582031 31.871094 17.453125 31.871094 17.339844 31.808594 L 14.25 29.960938 C 14.15625 29.90625 14.046875 29.886719 13.957031 29.9375 C 13.097656 30.425781 12.9375 30.492188 12.128906 30.769531 C 11.933594 30.839844 11.640625 30.960938 12.242188 31.296875 L 16.289062 33.691406 C 16.675781 33.914062 17.113281 34.03125 17.558594 34.03125 C 18.007812 34.03125 18.449219 33.914062 18.835938 33.691406 L 30.835938 26.695312 C 31.621094 26.238281 31.992188 25.394531 31.992188 24.484375 L 31.992188 10.5 C 31.992188 9.59375 31.621094 8.75 30.835938 8.292969 Z M 21.304688 22.269531 C 18.097656 22.269531 17.390625 21.386719 17.15625 19.792969 C 17.128906 19.621094 16.980469 19.414062 16.808594 19.414062 L 15.242188 19.414062 C 15.046875 19.414062 14.890625 19.648438 14.890625 19.84375 C 14.890625 21.882812 16 24.355469 21.304688 24.355469 C 25.144531 24.355469 27.34375 22.867188 27.34375 20.226562 C 27.34375 17.609375 25.574219 16.921875 21.851562 16.429688 C 18.089844 15.929688 17.707031 15.679688 17.707031 14.796875 C 17.707031 14.070312 18.03125 13.101562 20.816406 13.101562 C 23.308594 13.101562 24.222656 13.636719 24.601562 15.316406 C 24.632812 15.472656 24.777344 15.585938 24.941406 15.585938 L 26.515625 15.585938 C 26.609375 15.585938 26.703125 15.546875 26.769531 15.476562 C 26.835938 15.402344 26.871094 15.308594 26.863281 15.210938 C 26.621094 12.320312 24.699219 10.972656 20.816406 10.972656 C 17.363281 10.972656 15.300781 12.433594 15.300781 14.875 C 15.300781 17.527344 17.351562 18.261719 20.667969 18.589844 C 24.632812 18.976562 24.941406 19.558594 24.941406 20.339844 C 24.941406 21.691406 23.855469 22.269531 21.304688 22.269531 Z M 21.304688 22.269531 "/>
</g>
</svg>
