<?xml version="1.0" encoding="UTF-8"?>
<svg xmlns="http://www.w3.org/2000/svg" xmlns:xlink="http://www.w3.org/1999/xlink" width="35px" height="35px" viewBox="0 0 35 35" version="1.1">
<g id="surface1">
<path style=" stroke:none;fill-rule:nonzero;fill:rgb(91.764706%,10.588235%,13.333334%);fill-opacity:1;" d="M 15.144531 18.175781 L 17.421875 18.175781 L 16.21875 16.238281 L 14.007812 19.742188 L 13 19.742188 L 15.691406 15.53125 C 15.808594 15.359375 16.007812 15.257812 16.21875 15.257812 C 16.425781 15.257812 16.621094 15.359375 16.734375 15.523438 L 19.4375 19.742188 L 18.429688 19.742188 L 17.953125 18.957031 L 15.648438 18.957031 Z M 25.601562 18.957031 L 25.601562 15.300781 L 24.746094 15.300781 L 24.746094 19.316406 C 24.746094 19.425781 24.789062 19.53125 24.871094 19.613281 C 24.953125 19.695312 25.0625 19.742188 25.183594 19.742188 L 29.078125 19.742188 L 29.582031 18.957031 Z M 11.46875 18.304688 C 12.296875 18.304688 12.972656 17.632812 12.972656 16.804688 C 12.972656 15.972656 12.300781 15.300781 11.46875 15.300781 L 7.734375 15.300781 L 7.734375 19.742188 L 8.585938 19.742188 L 8.585938 16.085938 L 11.414062 16.085938 C 11.808594 16.085938 12.128906 16.40625 12.128906 16.804688 C 12.128906 17.199219 11.808594 17.523438 11.414062 17.523438 L 9.003906 17.519531 L 11.554688 19.742188 L 12.796875 19.742188 L 11.078125 18.300781 L 11.46875 18.300781 Z M 2.476562 19.742188 C 1.25 19.742188 0.257812 18.75 0.257812 17.523438 C 0.257812 16.296875 1.25 15.300781 2.476562 15.300781 L 5.058594 15.300781 C 6.285156 15.300781 7.277344 16.296875 7.277344 17.523438 C 7.277344 18.75 6.285156 19.742188 5.058594 19.742188 Z M 5 18.957031 C 5.382812 18.957031 5.746094 18.808594 6.015625 18.539062 C 6.285156 18.269531 6.4375 17.902344 6.4375 17.523438 C 6.4375 16.730469 5.796875 16.085938 5 16.082031 L 2.535156 16.082031 C 1.738281 16.085938 1.097656 16.730469 1.097656 17.523438 C 1.097656 18.316406 1.742188 18.960938 2.535156 18.957031 Z M 21.21875 19.742188 C 19.992188 19.742188 18.996094 18.75 18.996094 17.523438 C 18.996094 16.296875 19.992188 15.300781 21.21875 15.300781 L 24.285156 15.300781 L 23.785156 16.082031 L 21.277344 16.082031 C 20.480469 16.085938 19.835938 16.726562 19.835938 17.523438 C 19.835938 18.316406 20.480469 18.957031 21.277344 18.957031 L 24.355469 18.957031 L 23.851562 19.742188 Z M 31.664062 18.957031 C 31.019531 18.957031 30.457031 18.53125 30.28125 17.914062 L 33.933594 17.914062 L 34.433594 17.128906 L 30.28125 17.128906 C 30.457031 16.511719 31.019531 16.085938 31.664062 16.082031 L 34.167969 16.082031 L 34.675781 15.300781 L 31.605469 15.300781 C 30.378906 15.300781 29.386719 16.296875 29.386719 17.523438 C 29.386719 18.75 30.378906 19.742188 31.605469 19.742188 L 34.242188 19.742188 L 34.742188 18.957031 L 31.664062 18.957031 "/>
</g>
</svg>
