<?xml version="1.0" encoding="UTF-8"?>
<svg xmlns="http://www.w3.org/2000/svg" xmlns:xlink="http://www.w3.org/1999/xlink" width="35px" height="35px" viewBox="0 0 35 35" version="1.1">
<defs>
<radialGradient id="radial0" gradientUnits="userSpaceOnUse" cx="0" cy="0" fx="0" fy="0" r="1" gradientTransform="matrix(22.980059,0,0,22.980059,10.507109,11.530586)">
<stop offset="0" style="stop-color:rgb(68.235294%,69.803922%,83.529412%);stop-opacity:1;"/>
<stop offset="0.3" style="stop-color:rgb(68.235294%,69.803922%,83.529412%);stop-opacity:1;"/>
<stop offset="0.75" style="stop-color:rgb(28.235294%,29.803922%,53.72549%);stop-opacity:1;"/>
<stop offset="1" style="stop-color:rgb(28.235294%,29.803922%,53.72549%);stop-opacity:1;"/>
</radialGradient>
</defs>
<g id="surface1">
<path style=" stroke:none;fill-rule:nonzero;fill:url(#radial0);" d="M 0 17.5 C 0 22.585938 7.835938 26.707031 17.5 26.707031 C 27.164062 26.707031 35 22.585938 35 17.5 C 35 12.414062 27.164062 8.292969 17.5 8.292969 C 7.835938 8.292969 0 12.414062 0 17.5 Z M 0 17.5 "/>
<path style=" stroke:none;fill-rule:nonzero;fill:rgb(46.666667%,48.235294%,70.19608%);fill-opacity:1;" d="M 17.5 26.023438 C 26.789062 26.023438 34.316406 22.207031 34.316406 17.5 C 34.316406 12.792969 26.789062 8.976562 17.5 8.976562 C 8.210938 8.976562 0.683594 12.792969 0.683594 17.5 C 0.683594 22.207031 8.210938 26.023438 17.5 26.023438 Z M 17.5 26.023438 "/>
<path style=" stroke:none;fill-rule:nonzero;fill:rgb(0%,0%,0%);fill-opacity:1;" d="M 9.507812 18.554688 C 10.273438 18.554688 10.839844 18.414062 11.203125 18.136719 C 11.558594 17.863281 11.804688 17.386719 11.933594 16.722656 C 12.054688 16.101562 12.007812 15.667969 11.796875 15.433594 C 11.582031 15.195312 11.117188 15.074219 10.414062 15.074219 L 9.191406 15.074219 L 8.515625 18.554688 Z M 5.515625 22.84375 C 5.460938 22.84375 5.40625 22.820312 5.371094 22.777344 C 5.332031 22.730469 5.320312 22.675781 5.332031 22.617188 L 7.125 13.394531 C 7.140625 13.304688 7.21875 13.238281 7.308594 13.238281 L 11.171875 13.238281 C 12.386719 13.238281 13.292969 13.570312 13.859375 14.21875 C 14.433594 14.875 14.609375 15.789062 14.386719 16.9375 C 14.292969 17.40625 14.136719 17.839844 13.921875 18.226562 C 13.695312 18.628906 13.40625 18.992188 13.066406 19.300781 C 12.644531 19.691406 12.171875 19.976562 11.65625 20.144531 C 11.152344 20.308594 10.5 20.390625 9.722656 20.390625 L 8.160156 20.390625 L 7.710938 22.691406 C 7.695312 22.78125 7.617188 22.84375 7.527344 22.84375 Z M 5.515625 22.84375 "/>
<path style=" stroke:none;fill-rule:nonzero;fill:rgb(100%,100%,100%);fill-opacity:1;" d="M 9.347656 15.265625 L 10.414062 15.265625 C 11.261719 15.265625 11.558594 15.453125 11.65625 15.5625 C 11.824219 15.746094 11.855469 16.136719 11.75 16.6875 C 11.628906 17.304688 11.40625 17.742188 11.085938 17.988281 C 10.761719 18.238281 10.226562 18.367188 9.507812 18.367188 L 8.746094 18.367188 Z M 11.171875 13.050781 L 7.308594 13.050781 C 7.128906 13.050781 6.972656 13.179688 6.9375 13.355469 L 5.144531 22.582031 C 5.121094 22.695312 5.152344 22.808594 5.222656 22.894531 C 5.296875 22.984375 5.402344 23.035156 5.515625 23.035156 L 7.527344 23.035156 C 7.707031 23.035156 7.863281 22.90625 7.898438 22.726562 L 8.316406 20.582031 L 9.722656 20.582031 C 10.519531 20.582031 11.191406 20.496094 11.714844 20.324219 C 12.257812 20.148438 12.753906 19.851562 13.195312 19.4375 C 13.550781 19.117188 13.851562 18.738281 14.085938 18.320312 C 14.3125 17.914062 14.476562 17.460938 14.570312 16.972656 C 14.804688 15.761719 14.613281 14.796875 14.003906 14.09375 C 13.398438 13.402344 12.445312 13.050781 11.171875 13.050781 Z M 8.285156 18.746094 L 9.507812 18.746094 C 10.316406 18.746094 10.921875 18.59375 11.316406 18.289062 C 11.714844 17.984375 11.980469 17.472656 12.121094 16.757812 C 12.253906 16.074219 12.195312 15.589844 11.941406 15.308594 C 11.683594 15.027344 11.175781 14.886719 10.414062 14.886719 L 9.035156 14.886719 L 8.285156 18.746094 M 11.175781 13.429688 C 12.335938 13.429688 13.183594 13.734375 13.71875 14.34375 C 14.25 14.953125 14.410156 15.804688 14.199219 16.898438 C 14.109375 17.351562 13.964844 17.761719 13.753906 18.136719 C 13.546875 18.507812 13.273438 18.851562 12.9375 19.160156 C 12.535156 19.535156 12.089844 19.804688 11.597656 19.960938 C 11.109375 20.121094 10.484375 20.203125 9.722656 20.203125 L 8.003906 20.203125 L 7.527344 22.65625 L 5.515625 22.65625 L 7.308594 13.429688 L 11.175781 13.429688 "/>
<path style=" stroke:none;fill-rule:nonzero;fill:rgb(0%,0%,0%);fill-opacity:1;" d="M 18.992188 20.390625 C 18.9375 20.390625 18.882812 20.367188 18.847656 20.324219 C 18.808594 20.28125 18.796875 20.222656 18.804688 20.164062 L 19.597656 16.085938 C 19.675781 15.695312 19.65625 15.417969 19.546875 15.300781 C 19.480469 15.226562 19.28125 15.105469 18.6875 15.105469 L 17.25 15.105469 L 16.25 20.238281 C 16.234375 20.328125 16.15625 20.390625 16.066406 20.390625 L 14.070312 20.390625 C 14.015625 20.390625 13.960938 20.367188 13.925781 20.324219 C 13.890625 20.277344 13.875 20.222656 13.886719 20.167969 L 15.679688 10.941406 C 15.695312 10.851562 15.773438 10.785156 15.863281 10.789062 L 17.859375 10.789062 C 17.914062 10.785156 17.96875 10.8125 18.003906 10.855469 C 18.039062 10.898438 18.054688 10.957031 18.042969 11.011719 L 17.613281 13.238281 L 19.15625 13.238281 C 20.335938 13.238281 21.132812 13.445312 21.597656 13.875 C 22.074219 14.308594 22.222656 15.007812 22.039062 15.945312 L 21.203125 20.238281 C 21.1875 20.328125 21.109375 20.390625 21.019531 20.390625 Z M 18.992188 20.390625 "/>
<path style=" stroke:none;fill-rule:nonzero;fill:rgb(100%,100%,100%);fill-opacity:1;" d="M 17.859375 10.597656 L 15.863281 10.597656 C 15.683594 10.597656 15.527344 10.726562 15.492188 10.90625 L 13.699219 20.128906 C 13.675781 20.242188 13.707031 20.355469 13.777344 20.445312 C 13.851562 20.53125 13.957031 20.582031 14.070312 20.582031 L 16.066406 20.582031 C 16.246094 20.582031 16.402344 20.453125 16.4375 20.273438 L 17.40625 15.296875 L 18.683594 15.296875 C 19.277344 15.296875 19.402344 15.421875 19.40625 15.429688 C 19.445312 15.46875 19.492188 15.644531 19.414062 16.046875 L 18.621094 20.128906 C 18.597656 20.242188 18.628906 20.355469 18.699219 20.445312 C 18.773438 20.53125 18.878906 20.582031 18.992188 20.582031 L 21.019531 20.582031 C 21.199219 20.582031 21.355469 20.453125 21.390625 20.273438 L 22.226562 15.980469 C 22.421875 14.972656 22.253906 14.21875 21.726562 13.734375 C 21.226562 13.273438 20.386719 13.050781 19.15625 13.050781 L 17.84375 13.050781 L 18.230469 11.050781 C 18.253906 10.9375 18.222656 10.824219 18.152344 10.734375 C 18.078125 10.648438 17.972656 10.597656 17.859375 10.597656 Z M 17.859375 10.976562 L 17.382812 13.429688 L 19.15625 13.429688 C 20.273438 13.429688 21.046875 13.625 21.46875 14.015625 C 21.894531 14.40625 22.023438 15.035156 21.851562 15.910156 L 21.019531 20.203125 L 18.992188 20.203125 L 19.785156 16.121094 C 19.875 15.65625 19.84375 15.339844 19.6875 15.171875 C 19.53125 15 19.195312 14.917969 18.6875 14.917969 L 17.09375 14.917969 L 16.066406 20.203125 L 14.070312 20.203125 L 15.863281 10.976562 Z M 17.859375 10.976562 "/>
<path style=" stroke:none;fill-rule:nonzero;fill:rgb(0%,0%,0%);fill-opacity:1;" d="M 25.195312 18.554688 C 25.957031 18.554688 26.527344 18.414062 26.886719 18.136719 C 27.246094 17.863281 27.492188 17.386719 27.621094 16.722656 C 27.742188 16.101562 27.695312 15.667969 27.484375 15.433594 C 27.269531 15.195312 26.800781 15.074219 26.097656 15.074219 L 24.878906 15.074219 L 24.203125 18.554688 Z M 21.203125 22.84375 C 21.144531 22.84375 21.089844 22.820312 21.054688 22.777344 C 21.019531 22.730469 21.003906 22.675781 21.015625 22.617188 L 22.808594 13.394531 C 22.828125 13.304688 22.90625 13.238281 22.996094 13.238281 L 26.859375 13.238281 C 28.074219 13.238281 28.976562 13.570312 29.546875 14.21875 C 30.117188 14.875 30.292969 15.789062 30.070312 16.9375 C 29.984375 17.390625 29.828125 17.824219 29.605469 18.226562 C 29.378906 18.628906 29.089844 18.992188 28.75 19.300781 C 28.332031 19.691406 27.859375 19.976562 27.34375 20.144531 C 26.835938 20.308594 26.1875 20.390625 25.410156 20.390625 L 23.84375 20.390625 L 23.398438 22.691406 C 23.382812 22.78125 23.304688 22.84375 23.210938 22.84375 Z M 21.203125 22.84375 "/>
<path style=" stroke:none;fill-rule:nonzero;fill:rgb(100%,100%,100%);fill-opacity:1;" d="M 25.035156 15.265625 L 26.097656 15.265625 C 26.949219 15.265625 27.242188 15.453125 27.34375 15.5625 C 27.511719 15.746094 27.542969 16.136719 27.433594 16.6875 C 27.3125 17.304688 27.089844 17.742188 26.773438 17.988281 C 26.445312 18.238281 25.914062 18.367188 25.195312 18.367188 L 24.433594 18.367188 Z M 26.859375 13.050781 L 22.996094 13.050781 C 22.8125 13.050781 22.65625 13.179688 22.621094 13.355469 L 20.828125 22.582031 C 20.808594 22.695312 20.835938 22.808594 20.910156 22.894531 C 20.980469 22.984375 21.089844 23.035156 21.203125 23.035156 L 23.210938 23.035156 C 23.394531 23.035156 23.550781 22.90625 23.585938 22.726562 L 24 20.582031 L 25.410156 20.582031 C 26.207031 20.582031 26.875 20.496094 27.402344 20.324219 C 27.941406 20.148438 28.441406 19.851562 28.878906 19.4375 C 29.234375 19.117188 29.535156 18.738281 29.773438 18.320312 C 30 17.914062 30.160156 17.460938 30.257812 16.972656 C 30.492188 15.761719 30.300781 14.796875 29.6875 14.09375 C 29.082031 13.402344 28.132812 13.050781 26.859375 13.050781 Z M 23.972656 18.746094 L 25.195312 18.746094 C 26.003906 18.746094 26.605469 18.59375 27.003906 18.289062 C 27.402344 17.984375 27.667969 17.472656 27.808594 16.757812 C 27.941406 16.074219 27.878906 15.589844 27.625 15.308594 C 27.371094 15.027344 26.863281 14.886719 26.097656 14.886719 L 24.722656 14.886719 Z M 26.859375 13.429688 C 28.023438 13.429688 28.871094 13.734375 29.402344 14.34375 C 29.9375 14.953125 30.097656 15.804688 29.882812 16.898438 C 29.796875 17.351562 29.648438 17.761719 29.441406 18.136719 C 29.230469 18.507812 28.957031 18.851562 28.621094 19.160156 C 28.222656 19.535156 27.773438 19.804688 27.285156 19.960938 C 26.792969 20.121094 26.167969 20.203125 25.410156 20.203125 L 23.6875 20.203125 L 23.210938 22.65625 L 21.203125 22.65625 L 22.996094 13.429688 L 26.859375 13.429688 "/>
</g>
</svg>
