<?xml version="1.0" encoding="UTF-8"?>
<svg xmlns="http://www.w3.org/2000/svg" xmlns:xlink="http://www.w3.org/1999/xlink" width="35px" height="35px" viewBox="0 0 35 35" version="1.1">
<defs>
<linearGradient id="linear0" gradientUnits="userSpaceOnUse" x1="25.799999" y1="33.599998" x2="33.950001" y2="17.309999" gradientTransform="matrix(0.333333,0.000605048,-0.000605048,0.333333,0,0)">
<stop offset="0" style="stop-color:rgb(68.627451%,11.372549%,96.078431%);stop-opacity:1;"/>
<stop offset="0.21" style="stop-color:rgb(73.72549%,12.54902%,89.411765%);stop-opacity:1;"/>
<stop offset="0.63" style="stop-color:rgb(86.666667%,16.078431%,72.156863%);stop-opacity:1;"/>
<stop offset="1" style="stop-color:rgb(100%,19.215686%,54.901961%);stop-opacity:1;"/>
</linearGradient>
<linearGradient id="linear1" gradientUnits="userSpaceOnUse" x1="1.56" y1="67.230003" x2="35.950001" y2="21.799999" gradientTransform="matrix(0.333333,0.000605048,-0.000605048,0.333333,0,0)">
<stop offset="0.02" style="stop-color:rgb(41.960784%,34.117647%,100%);stop-opacity:1;"/>
<stop offset="0.42" style="stop-color:rgb(71.764706%,29.019608%,96.862745%);stop-opacity:1;"/>
<stop offset="0.75" style="stop-color:rgb(100%,19.215686%,54.901961%);stop-opacity:1;"/>
</linearGradient>
<linearGradient id="linear2" gradientUnits="userSpaceOnUse" x1="89.300003" y1="65.790001" x2="65.459999" y2="9.23" gradientTransform="matrix(0.333333,0.000605048,-0.000605048,0.333333,0,0)">
<stop offset="0" style="stop-color:rgb(16.078431%,21.960784%,58.823529%);stop-opacity:1;"/>
<stop offset="0.08" style="stop-color:rgb(23.137255%,22.745098%,63.529412%);stop-opacity:1;"/>
<stop offset="0.29" style="stop-color:rgb(40.392157%,25.098039%,75.294118%);stop-opacity:1;"/>
<stop offset="0.49" style="stop-color:rgb(54.117647%,26.666667%,84.705882%);stop-opacity:1;"/>
<stop offset="0.68" style="stop-color:rgb(63.921569%,27.843137%,91.372549%);stop-opacity:1;"/>
<stop offset="0.86" style="stop-color:rgb(69.803922%,28.627451%,95.294118%);stop-opacity:1;"/>
<stop offset="1" style="stop-color:rgb(71.764706%,29.019608%,96.862745%);stop-opacity:1;"/>
</linearGradient>
<linearGradient id="linear3" gradientUnits="userSpaceOnUse" x1="74.68" y1="93.589996" x2="58.599998" y2="70.029999" gradientTransform="matrix(0.333333,0.000605048,-0.000605048,0.333333,0,0)">
<stop offset="0.02" style="stop-color:rgb(41.960784%,34.117647%,100%);stop-opacity:1;"/>
<stop offset="0.78" style="stop-color:rgb(71.764706%,29.019608%,96.862745%);stop-opacity:1;"/>
</linearGradient>
</defs>
<g id="surface1">
<path style=" stroke:none;fill-rule:nonzero;fill:url(#linear0);" d="M 19.164062 7.460938 L 18.097656 4.234375 L 6.960938 1.832031 L 1.5 8.011719 L 7.5 11.078125 L 7.5 7.460938 Z M 19.164062 7.460938 "/>
<path style=" stroke:none;fill-rule:nonzero;fill:url(#linear1);" d="M 7.5 9.558594 L 1.5 8.011719 L 4.550781 26.332031 L 7.488281 26.308594 Z M 7.5 9.558594 "/>
<path style=" stroke:none;fill-rule:nonzero;fill:url(#linear2);" d="M 27.5 7.460938 L 17.0625 7.460938 L 21.257812 3.734375 L 29.335938 5.234375 L 33.5 15.578125 L 27.503906 21.535156 Z M 27.5 7.460938 "/>
<path style=" stroke:none;fill-rule:nonzero;fill:url(#linear3);" d="M 27.507812 15.441406 L 27.5 27.460938 L 10.320312 27.460938 L 10.761719 30.074219 L 21.550781 33.832031 L 33.5 26.679688 Z M 27.507812 15.441406 "/>
<path style=" stroke:none;fill-rule:nonzero;fill:rgb(0%,0%,0%);fill-opacity:1;" d="M 7.5 7.5 L 27.5 7.5 L 27.5 27.5 L 7.5 27.5 Z M 7.5 7.5 "/>
<path style=" stroke:none;fill-rule:nonzero;fill:rgb(100%,100%,100%);fill-opacity:1;" d="M 9.992188 23.71875 L 17.492188 23.71875 L 17.492188 24.96875 L 9.992188 24.96875 Z M 16.535156 16.421875 L 17.507812 15.253906 C 18.125 15.820312 18.921875 16.144531 19.757812 16.167969 C 20.421875 16.167969 20.84375 15.898438 20.84375 15.457031 L 20.84375 15.4375 C 20.84375 15.015625 20.582031 14.800781 19.328125 14.480469 C 17.808594 14.09375 16.832031 13.671875 16.832031 12.179688 L 16.832031 12.15625 C 16.832031 10.792969 17.929688 9.890625 19.464844 9.890625 C 20.480469 9.871094 21.46875 10.210938 22.257812 10.847656 L 21.398438 12.09375 C 20.835938 11.652344 20.15625 11.394531 19.441406 11.351562 C 18.808594 11.351562 18.476562 11.644531 18.476562 12.019531 L 18.476562 12.042969 C 18.476562 12.535156 18.808594 12.710938 20.101562 13.042969 C 21.628906 13.441406 22.488281 13.988281 22.488281 15.300781 L 22.488281 15.324219 C 22.488281 16.816406 21.347656 17.65625 19.722656 17.65625 C 18.546875 17.660156 17.414062 17.234375 16.535156 16.453125 M 10 10 L 13.066406 10 C 14.851562 10 15.9375 11.0625 15.9375 12.589844 L 15.9375 12.609375 C 15.9375 14.34375 14.585938 15.242188 12.90625 15.242188 L 11.667969 15.242188 L 11.667969 17.492188 L 10 17.492188 Z M 12.953125 13.777344 C 13.777344 13.777344 14.261719 13.285156 14.261719 12.644531 L 14.261719 12.621094 C 14.261719 11.882812 13.746094 11.488281 12.925781 11.488281 L 11.667969 11.488281 L 11.667969 13.777344 Z M 12.953125 13.777344 "/>
</g>
</svg>
