<?xml version="1.0" encoding="UTF-8"?>
<svg xmlns="http://www.w3.org/2000/svg" xmlns:xlink="http://www.w3.org/1999/xlink" width="35px" height="35px" viewBox="0 0 35 35" version="1.1">
<g id="surface1">
<path style=" stroke:none;fill-rule:nonzero;fill:rgb(0%,0%,0%);fill-opacity:1;" d="M 25.652344 25.1875 C 25.867188 23.402344 25.800781 23.136719 27.132812 23.429688 L 27.46875 23.457031 C 28.492188 23.503906 29.832031 23.292969 30.617188 22.925781 C 32.308594 22.140625 33.3125 20.832031 31.644531 21.175781 C 27.835938 21.960938 27.578125 20.671875 27.578125 20.671875 C 31.597656 14.707031 33.277344 7.132812 31.828125 5.28125 C 27.871094 0.226562 21.019531 2.617188 20.90625 2.675781 L 20.871094 2.683594 C 20.117188 2.527344 19.277344 2.433594 18.328125 2.417969 C 16.605469 2.390625 15.300781 2.871094 14.308594 3.621094 C 14.308594 3.621094 2.089844 -1.410156 2.65625 9.953125 C 2.777344 12.371094 6.125 28.246094 10.113281 23.449219 C 11.570312 21.699219 12.980469 20.214844 12.980469 20.214844 C 13.679688 20.679688 14.515625 20.917969 15.394531 20.832031 L 15.460938 20.773438 C 15.441406 20.992188 15.449219 21.203125 15.488281 21.457031 C 14.460938 22.605469 14.765625 22.804688 12.710938 23.230469 C 10.632812 23.65625 11.851562 24.417969 12.648438 24.617188 C 13.617188 24.859375 15.851562 25.203125 17.363281 23.089844 L 17.300781 23.328125 C 17.707031 23.652344 17.679688 25.648438 17.734375 27.074219 C 17.792969 28.5 17.886719 29.828125 18.179688 30.613281 C 18.46875 31.398438 18.8125 33.417969 21.511719 32.839844 C 23.769531 32.355469 25.492188 31.660156 25.652344 25.1875 "/>
<path style=" stroke:none;fill-rule:nonzero;fill:rgb(0%,0%,0%);fill-opacity:1;" d="M 20.632812 34.25 C 19.4375 34.25 18.660156 33.789062 18.1875 33.34375 C 17.476562 32.667969 17.195312 31.800781 17.023438 31.285156 L 16.953125 31.070312 C 16.609375 30.152344 16.496094 28.828125 16.425781 27.125 C 16.417969 26.871094 16.410156 26.605469 16.402344 26.328125 C 16.394531 26.125 16.390625 25.867188 16.378906 25.601562 C 15.949219 25.804688 15.492188 25.949219 15.023438 26.027344 C 14.179688 26.171875 13.273438 26.125 12.332031 25.890625 C 11.664062 25.722656 10.972656 25.378906 10.578125 24.84375 C 9.429688 25.851562 8.335938 25.714844 7.738281 25.515625 C 6.683594 25.164062 5.742188 24.175781 4.855469 22.5 C 4.222656 21.300781 3.613281 19.742188 3.039062 17.867188 C 2.042969 14.59375 1.40625 11.152344 1.351562 10.019531 C 1.171875 6.480469 2.125 3.949219 4.183594 2.496094 C 7.425781 0.207031 12.339844 1.550781 14.132812 2.164062 C 15.335938 1.4375 16.75 1.085938 18.351562 1.109375 C 19.210938 1.125 20.027344 1.199219 20.789062 1.335938 C 21.582031 1.085938 23.148438 0.730469 24.941406 0.75 C 28.246094 0.789062 30.980469 2.078125 32.855469 4.472656 C 34.195312 6.183594 33.535156 9.773438 33.019531 11.761719 C 32.296875 14.558594 31.03125 17.53125 29.476562 20.121094 C 29.898438 20.125 30.511719 20.074219 31.378906 19.894531 C 33.097656 19.539062 33.597656 20.460938 33.734375 20.871094 C 34.28125 22.523438 31.910156 23.773438 31.167969 24.113281 C 30.222656 24.554688 28.675781 24.824219 27.410156 24.765625 L 27.355469 24.761719 L 27.023438 24.730469 L 26.988281 25.007812 L 26.957031 25.28125 C 26.875 28.5625 26.40625 30.640625 25.441406 32.011719 C 24.429688 33.453125 23.023438 33.855469 21.785156 34.121094 C 21.363281 34.210938 20.980469 34.25 20.632812 34.25 Z M 18.121094 22.308594 C 18.890625 22.925781 18.957031 24.085938 19.019531 26.253906 C 19.027344 26.527344 19.035156 26.78125 19.042969 27.019531 C 19.070312 27.746094 19.140625 29.441406 19.40625 30.160156 C 19.445312 30.261719 19.476562 30.363281 19.511719 30.472656 C 19.808594 31.378906 19.957031 31.835938 21.238281 31.5625 C 22.3125 31.332031 22.867188 31.125 23.296875 30.507812 C 23.925781 29.613281 24.277344 27.8125 24.34375 25.15625 L 25.652344 25.1875 L 24.351562 25.03125 L 24.390625 24.707031 C 24.515625 23.636719 24.605469 22.867188 25.320312 22.355469 C 25.890625 21.945312 26.546875 21.984375 27.066406 22.078125 C 26.492188 21.644531 26.335938 21.140625 26.292969 20.933594 L 26.183594 20.394531 L 26.492188 19.941406 C 28.257812 17.320312 29.710938 14.101562 30.484375 11.105469 C 31.28125 8.03125 31.039062 6.398438 30.796875 6.085938 C 27.589844 1.988281 22.027344 3.679688 21.445312 3.875 L 21.347656 3.925781 L 20.855469 4.019531 L 20.605469 3.964844 C 19.910156 3.820312 19.136719 3.742188 18.308594 3.726562 C 17.007812 3.707031 15.960938 4.015625 15.097656 4.667969 L 14.503906 5.117188 L 13.808594 4.832031 C 12.328125 4.230469 7.984375 3.011719 5.691406 4.636719 C 4.417969 5.539062 3.835938 7.304688 3.964844 9.886719 C 4.007812 10.742188 4.585938 13.96875 5.542969 17.101562 C 6.863281 21.429688 8.066406 22.867188 8.566406 23.03125 C 8.652344 23.0625 8.878906 22.886719 9.105469 22.613281 C 10.046875 21.484375 11.023438 20.386719 12.03125 19.3125 L 12.789062 18.515625 L 13.703125 19.125 C 14.074219 19.371094 14.480469 19.511719 14.898438 19.535156 L 17.082031 17.671875 L 16.765625 20.902344 C 16.757812 20.976562 16.753906 21.074219 16.785156 21.257812 L 16.878906 21.867188 L 16.464844 22.332031 L 16.417969 22.382812 L 17.617188 22.9375 Z M 18.121094 22.308594 "/>
<path style=" stroke:none;fill-rule:nonzero;fill:rgb(20%,40.392157%,56.862748%);fill-opacity:1;" d="M 31.644531 21.175781 C 27.835938 21.960938 27.574219 20.671875 27.574219 20.671875 C 31.597656 14.707031 33.277344 7.132812 31.828125 5.28125 C 27.871094 0.226562 21.019531 2.617188 20.90625 2.679688 L 20.871094 2.683594 C 20.117188 2.527344 19.273438 2.433594 18.328125 2.417969 C 16.605469 2.390625 15.300781 2.871094 14.308594 3.625 C 14.308594 3.625 2.089844 -1.410156 2.65625 9.953125 C 2.777344 12.371094 6.121094 28.246094 10.109375 23.453125 C 11.570312 21.699219 12.976562 20.214844 12.976562 20.214844 C 13.675781 20.679688 14.515625 20.917969 15.394531 20.832031 L 15.460938 20.773438 C 15.441406 20.992188 15.449219 21.203125 15.488281 21.457031 C 14.460938 22.605469 14.761719 22.808594 12.707031 23.230469 C 10.628906 23.65625 11.851562 24.421875 12.648438 24.621094 C 13.613281 24.863281 15.851562 25.203125 17.363281 23.089844 L 17.300781 23.332031 C 17.703125 23.652344 17.988281 25.429688 17.9375 27.039062 C 17.890625 28.644531 17.859375 29.75 18.175781 30.613281 C 18.496094 31.476562 18.8125 33.417969 21.511719 32.839844 C 23.769531 32.355469 24.9375 31.105469 25.101562 29.011719 C 25.214844 27.527344 25.476562 27.746094 25.492188 26.417969 L 25.703125 25.789062 C 25.945312 23.773438 25.742188 23.125 27.132812 23.425781 L 27.46875 23.457031 C 28.492188 23.503906 29.832031 23.292969 30.617188 22.925781 C 32.308594 22.140625 33.3125 20.832031 31.644531 21.175781 Z M 31.644531 21.175781 "/>
<path style=" stroke:none;fill-rule:nonzero;fill:rgb(100%,100%,100%);fill-opacity:1;" d="M 20.769531 33.441406 C 18.519531 33.441406 17.804688 31.660156 17.515625 30.933594 C 17.085938 29.863281 16.996094 25.71875 17.089844 22.316406 C 17.09375 22.203125 17.140625 22.09375 17.226562 22.011719 C 17.308594 21.933594 17.421875 21.890625 17.539062 21.894531 C 17.652344 21.898438 17.761719 21.945312 17.84375 22.03125 C 17.921875 22.113281 17.964844 22.226562 17.960938 22.34375 C 17.851562 26.261719 18.007812 29.816406 18.324219 30.609375 C 18.816406 31.839844 19.566406 32.917969 21.679688 32.464844 C 23.6875 32.035156 24.441406 31.273438 24.773438 29.332031 C 25.03125 27.84375 25.539062 23.605469 25.601562 22.765625 C 25.613281 22.652344 25.664062 22.542969 25.753906 22.46875 C 25.839844 22.394531 25.957031 22.355469 26.070312 22.363281 C 26.3125 22.382812 26.492188 22.59375 26.472656 22.832031 C 26.40625 23.703125 25.902344 27.933594 25.636719 29.480469 C 25.238281 31.773438 24.21875 32.8125 21.863281 33.320312 C 21.464844 33.40625 21.101562 33.441406 20.769531 33.441406 Z M 8.5625 24.738281 C 8.367188 24.734375 8.171875 24.703125 7.984375 24.640625 C 6.523438 24.152344 5.132812 21.773438 3.847656 17.5625 C 2.867188 14.359375 2.25 11.015625 2.195312 9.929688 C 2.035156 6.707031 2.863281 4.425781 4.660156 3.152344 C 8.21875 0.632812 14.199219 3.03125 14.453125 3.136719 C 14.675781 3.226562 14.785156 3.480469 14.691406 3.703125 C 14.601562 3.929688 14.347656 4.035156 14.125 3.945312 C 14.066406 3.921875 8.328125 1.621094 5.164062 3.867188 C 3.625 4.957031 2.921875 6.980469 3.066406 9.886719 C 3.113281 10.800781 3.691406 14.0625 4.679688 17.308594 C 5.828125 21.066406 7.132812 23.4375 8.261719 23.8125 C 8.4375 23.871094 8.976562 24.050781 9.75 23.125 C 10.648438 22.046875 11.582031 20.996094 12.546875 19.972656 C 12.714844 19.804688 12.984375 19.804688 13.15625 19.96875 C 13.328125 20.132812 13.335938 20.402344 13.175781 20.578125 C 13.164062 20.589844 11.851562 21.960938 10.417969 23.683594 C 9.742188 24.496094 9.09375 24.738281 8.5625 24.738281 Z M 27.546875 21.058594 C 27.386719 21.058594 27.238281 20.972656 27.164062 20.828125 C 27.089844 20.6875 27.097656 20.515625 27.1875 20.378906 C 31.25 14.351562 32.679688 7.0625 31.457031 5.5 C 29.917969 3.535156 27.746094 2.511719 25.003906 2.449219 C 22.96875 2.40625 21.355469 2.925781 21.089844 3.015625 L 21.023438 3.042969 C 20.757812 3.128906 20.554688 2.980469 20.476562 2.8125 C 20.386719 2.609375 20.460938 2.371094 20.648438 2.257812 C 20.664062 2.25 20.703125 2.234375 20.765625 2.210938 L 20.761719 2.210938 L 20.765625 2.210938 C 21.214844 2.046875 22.855469 1.554688 24.886719 1.578125 C 27.925781 1.609375 30.433594 2.78125 32.144531 4.964844 C 32.953125 5.996094 32.953125 8.378906 32.148438 11.496094 C 31.328125 14.675781 29.78125 18.089844 27.910156 20.867188 C 27.828125 20.992188 27.6875 21.058594 27.550781 21.058594 Z M 27.757812 23.851562 C 27.0625 23.851562 26.441406 23.753906 26.066406 23.53125 C 25.683594 23.300781 25.613281 22.988281 25.601562 22.824219 C 25.5 20.988281 26.511719 20.671875 27.027344 20.523438 C 26.953125 20.414062 26.851562 20.289062 26.746094 20.15625 C 26.445312 19.78125 26.035156 19.265625 25.714844 18.492188 C 25.664062 18.375 25.511719 18.09375 25.328125 17.769531 C 24.351562 16.015625 22.316406 12.363281 23.621094 10.492188 C 24.226562 9.628906 25.433594 9.285156 27.210938 9.476562 C 26.6875 7.886719 24.199219 2.90625 18.292969 2.808594 C 16.519531 2.777344 15.0625 3.324219 13.96875 4.429688 C 11.519531 6.90625 11.605469 11.382812 11.609375 11.425781 C 11.613281 11.667969 11.425781 11.867188 11.183594 11.875 C 10.941406 11.878906 10.742188 11.691406 10.734375 11.449219 C 10.730469 11.25 10.640625 6.550781 13.347656 3.816406 C 14.617188 2.535156 16.285156 1.902344 18.308594 1.9375 C 22.085938 2 24.519531 3.917969 25.890625 5.519531 C 27.390625 7.261719 28.125 9.1875 28.183594 9.828125 C 28.230469 10.304688 27.886719 10.402344 27.820312 10.414062 L 27.660156 10.417969 C 25.917969 10.140625 24.800781 10.332031 24.335938 10.992188 C 23.34375 12.414062 25.269531 15.871094 26.089844 17.34375 C 26.300781 17.722656 26.453125 17.992188 26.523438 18.160156 C 26.792969 18.816406 27.144531 19.257812 27.425781 19.609375 C 27.675781 19.921875 27.890625 20.191406 27.96875 20.507812 C 28.003906 20.570312 28.515625 21.324219 31.53125 20.699219 C 32.285156 20.542969 32.738281 20.679688 32.878906 21.097656 C 33.152344 21.921875 31.621094 22.882812 30.773438 23.277344 C 30.015625 23.628906 28.804688 23.851562 27.757812 23.851562 Z M 26.472656 22.753906 C 26.566406 22.847656 27.046875 23.015625 28.039062 22.972656 C 28.921875 22.933594 29.851562 22.742188 30.40625 22.484375 C 31.121094 22.152344 31.597656 21.78125 31.84375 21.53125 L 31.707031 21.554688 C 29.777344 21.953125 28.414062 21.898438 27.652344 21.398438 C 27.601562 21.363281 27.550781 21.328125 27.503906 21.289062 C 27.421875 21.320312 27.347656 21.339844 27.292969 21.355469 C 26.859375 21.476562 26.414062 21.601562 26.472656 22.753906 Z M 14.015625 25.191406 C 13.535156 25.191406 13.03125 25.125 12.515625 24.996094 C 11.984375 24.863281 11.082031 24.460938 11.097656 23.800781 C 11.113281 23.0625 12.1875 22.839844 12.59375 22.753906 C 14.058594 22.453125 14.152344 22.332031 14.609375 21.753906 C 14.746094 21.582031 14.910156 21.371094 15.136719 21.121094 C 15.472656 20.742188 15.839844 20.550781 16.226562 20.550781 C 16.5 20.550781 16.71875 20.644531 16.867188 20.707031 C 17.335938 20.898438 17.722656 21.367188 17.882812 21.925781 C 18.027344 22.433594 17.960938 22.917969 17.691406 23.296875 C 16.804688 24.535156 15.535156 25.191406 14.015625 25.191406 Z M 12.039062 23.839844 C 12.171875 23.941406 12.433594 24.078125 12.726562 24.148438 C 13.175781 24.261719 13.605469 24.316406 14.015625 24.316406 C 15.257812 24.316406 16.253906 23.804688 16.980469 22.789062 C 17.132812 22.578125 17.085938 22.308594 17.046875 22.167969 C 16.960938 21.871094 16.75 21.601562 16.535156 21.511719 C 16.417969 21.460938 16.320312 21.425781 16.230469 21.425781 C 16.179688 21.425781 16.035156 21.425781 15.789062 21.699219 C 15.617188 21.890625 15.453125 22.089844 15.296875 22.292969 C 14.726562 23.015625 14.464844 23.261719 12.769531 23.609375 C 12.355469 23.695312 12.144531 23.78125 12.039062 23.839844 Z M 15.394531 21.828125 C 15.179688 21.824219 14.996094 21.667969 14.964844 21.457031 C 14.953125 21.382812 14.945312 21.3125 14.941406 21.238281 C 13.832031 21.21875 12.757812 20.738281 11.945312 19.890625 C 10.914062 18.816406 10.445312 17.328125 10.660156 15.808594 C 10.890625 14.160156 10.804688 12.703125 10.757812 11.917969 C 10.746094 11.699219 10.734375 11.542969 10.734375 11.433594 C 10.738281 11.296875 10.738281 10.929688 11.964844 10.308594 C 12.398438 10.089844 13.273438 9.703125 14.226562 9.605469 C 15.804688 9.441406 16.847656 10.144531 17.15625 11.585938 C 18 15.476562 17.222656 17.199219 16.660156 18.453125 C 16.554688 18.6875 16.453125 18.910156 16.375 19.125 L 16.304688 19.3125 C 16.003906 20.113281 15.746094 20.804688 15.824219 21.324219 C 15.863281 21.5625 15.699219 21.785156 15.460938 21.820312 Z M 11.609375 11.554688 L 11.628906 11.867188 C 11.675781 12.679688 11.765625 14.191406 11.523438 15.929688 C 11.347656 17.183594 11.730469 18.40625 12.574219 19.285156 C 13.242188 19.980469 14.117188 20.367188 15.019531 20.367188 L 15.039062 20.367188 C 15.136719 19.941406 15.304688 19.492188 15.484375 19.007812 L 15.554688 18.820312 C 15.644531 18.578125 15.75 18.34375 15.863281 18.097656 C 16.40625 16.886719 17.085938 15.382812 16.304688 11.773438 C 16.148438 11.054688 15.773438 10.644531 15.160156 10.507812 C 13.894531 10.226562 12.007812 11.179688 11.609375 11.554688 Z M 14.246094 11.371094 C 14.222656 11.523438 14.527344 11.9375 14.925781 11.992188 C 15.320312 12.046875 15.660156 11.726562 15.679688 11.570312 C 15.703125 11.417969 15.398438 11.246094 15 11.191406 C 14.605469 11.136719 14.265625 11.214844 14.246094 11.371094 Z M 15.015625 12.144531 L 14.902344 12.136719 C 14.65625 12.101562 14.410156 11.945312 14.238281 11.71875 C 14.179688 11.640625 14.082031 11.488281 14.101562 11.351562 C 14.128906 11.148438 14.375 11.027344 14.757812 11.027344 C 14.84375 11.027344 14.929688 11.035156 15.019531 11.046875 C 15.230469 11.074219 15.425781 11.136719 15.570312 11.214844 C 15.816406 11.355469 15.835938 11.511719 15.824219 11.589844 C 15.792969 11.8125 15.441406 12.144531 15.015625 12.144531 Z M 14.390625 11.394531 C 14.402344 11.492188 14.636719 11.804688 14.945312 11.847656 L 15.015625 11.851562 C 15.296875 11.851562 15.511719 11.628906 15.535156 11.554688 C 15.507812 11.507812 15.328125 11.382812 14.980469 11.335938 C 14.90625 11.324219 14.832031 11.320312 14.757812 11.320312 C 14.535156 11.320312 14.417969 11.367188 14.390625 11.394531 Z M 26.3125 11.054688 C 26.332031 11.210938 26.03125 11.621094 25.632812 11.675781 C 25.238281 11.730469 24.898438 11.410156 24.875 11.257812 C 24.855469 11.101562 25.160156 10.929688 25.554688 10.875 C 25.953125 10.820312 26.289062 10.902344 26.3125 11.054688 Z M 25.542969 11.753906 C 25.160156 11.753906 24.832031 11.457031 24.804688 11.265625 C 24.773438 11.035156 25.152344 10.859375 25.542969 10.804688 C 25.632812 10.792969 25.71875 10.785156 25.800781 10.785156 C 26.136719 10.785156 26.363281 10.886719 26.382812 11.046875 C 26.398438 11.148438 26.320312 11.308594 26.183594 11.453125 C 26.089844 11.546875 25.902344 11.714844 25.644531 11.75 Z M 25.800781 10.933594 C 25.722656 10.933594 25.644531 10.9375 25.566406 10.949219 C 25.171875 11.003906 24.9375 11.160156 24.949219 11.246094 C 24.960938 11.339844 25.210938 11.609375 25.542969 11.609375 L 25.621094 11.605469 C 25.839844 11.574219 26 11.433594 26.078125 11.351562 C 26.199219 11.226562 26.246094 11.105469 26.242188 11.066406 C 26.234375 11.011719 26.085938 10.933594 25.800781 10.933594 Z M 26.882812 19.914062 C 26.722656 19.914062 26.574219 19.824219 26.5 19.679688 C 26.421875 19.539062 26.433594 19.367188 26.523438 19.234375 C 27.449219 17.84375 27.28125 16.429688 27.117188 15.0625 C 27.046875 14.480469 26.972656 13.875 26.992188 13.296875 C 27.011719 12.703125 27.085938 12.210938 27.160156 11.734375 C 27.246094 11.171875 27.328125 10.640625 27.296875 10.011719 C 27.28125 9.769531 27.464844 9.566406 27.707031 9.550781 C 27.949219 9.539062 28.152344 9.722656 28.167969 9.964844 C 28.203125 10.683594 28.113281 11.285156 28.023438 11.867188 C 27.953125 12.316406 27.882812 12.78125 27.863281 13.324219 C 27.847656 13.835938 27.914062 14.382812 27.984375 14.957031 C 28.15625 16.414062 28.355469 18.0625 27.246094 19.71875 C 27.164062 19.839844 27.03125 19.914062 26.882812 19.914062 Z M 26.882812 19.914062 "/>
</g>
</svg>
