<?xml version="1.0" encoding="UTF-8"?>
<svg xmlns="http://www.w3.org/2000/svg" xmlns:xlink="http://www.w3.org/1999/xlink" width="35px" height="35px" viewBox="0 0 35 35" version="1.1">
<defs>
<linearGradient id="linear0" gradientUnits="userSpaceOnUse" x1="23.325001" y1="-118.542999" x2="7.26" y2="-104.193001" gradientTransform="matrix(1.09375,0,0,-1.09375,0,-105)">
<stop offset="0" style="stop-color:rgb(32.54902%,56.862745%,99.607843%);stop-opacity:1;"/>
<stop offset="1" style="stop-color:rgb(24.313725%,42.745098%,74.901961%);stop-opacity:1;"/>
</linearGradient>
<linearGradient id="linear1" gradientUnits="userSpaceOnUse" x1="7.1" y1="-104.001999" x2="23.000999" y2="-118.292" gradientTransform="matrix(1.09375,0,0,-1.09375,0,-105)">
<stop offset="0" style="stop-color:rgb(32.54902%,56.862745%,99.607843%);stop-opacity:1;"/>
<stop offset="1" style="stop-color:rgb(24.313725%,42.745098%,74.901961%);stop-opacity:1;"/>
</linearGradient>
</defs>
<g id="surface1">
<path style=" stroke:none;fill-rule:evenodd;fill:url(#linear0);" d="M 3.472656 29.082031 C 3.078125 29.09375 2.703125 28.921875 2.457031 28.617188 C 2.207031 28.289062 2.125 27.867188 2.226562 27.46875 L 6.816406 7.414062 C 7.027344 6.5625 7.777344 5.949219 8.65625 5.917969 L 31.527344 5.917969 C 31.921875 5.90625 32.296875 6.078125 32.542969 6.378906 C 32.792969 6.707031 32.875 7.132812 32.773438 7.53125 L 28.179688 27.585938 C 27.96875 28.4375 27.21875 29.050781 26.339844 29.082031 Z M 3.472656 29.082031 "/>
<path style=" stroke:none;fill-rule:evenodd;fill:url(#linear1);" d="M 8.65625 6.175781 L 31.527344 6.175781 C 31.855469 6.160156 32.164062 6.308594 32.363281 6.566406 C 32.558594 6.824219 32.621094 7.164062 32.523438 7.472656 L 27.929688 27.527344 C 27.742188 28.261719 27.097656 28.789062 26.339844 28.824219 L 3.472656 28.824219 C 3.144531 28.839844 2.835938 28.691406 2.636719 28.433594 C 2.441406 28.175781 2.378906 27.835938 2.476562 27.527344 L 7.070312 7.472656 C 7.257812 6.738281 7.898438 6.214844 8.65625 6.175781 Z M 8.65625 6.175781 "/>
<path style=" stroke:none;fill-rule:evenodd;fill:rgb(17.254902%,33.333334%,56.862748%);fill-opacity:1;" d="M 17.542969 23.5625 L 23.105469 23.5625 C 23.761719 23.589844 24.277344 24.128906 24.277344 24.785156 C 24.277344 25.441406 23.761719 25.980469 23.105469 26.007812 L 17.542969 26.007812 C 16.890625 25.980469 16.371094 25.441406 16.371094 24.785156 C 16.371094 24.128906 16.890625 23.589844 17.542969 23.5625 Z M 17.542969 23.5625 "/>
<path style=" stroke:none;fill-rule:evenodd;fill:rgb(17.254902%,33.333334%,56.862748%);fill-opacity:1;" d="M 21.152344 18.132812 C 20.992188 18.398438 20.769531 18.625 20.503906 18.789062 L 10.183594 26.199219 C 9.585938 26.585938 8.789062 26.441406 8.371094 25.863281 C 7.949219 25.289062 8.054688 24.484375 8.609375 24.035156 L 17.917969 17.292969 L 17.917969 17.15625 L 12.070312 10.9375 C 11.617188 10.394531 11.667969 9.589844 12.183594 9.105469 C 12.699219 8.621094 13.503906 8.621094 14.019531 9.109375 L 21.039062 16.574219 C 21.425781 17.007812 21.472656 17.648438 21.152344 18.132812 Z M 21.152344 18.132812 "/>
<path style=" stroke:none;fill-rule:evenodd;fill:rgb(100%,100%,100%);fill-opacity:1;" d="M 20.890625 17.875 C 20.730469 18.140625 20.511719 18.367188 20.246094 18.53125 L 9.925781 25.941406 C 9.328125 26.320312 8.539062 26.171875 8.121094 25.601562 C 7.707031 25.027344 7.804688 24.230469 8.351562 23.777344 L 17.660156 17.039062 L 17.660156 16.898438 L 11.8125 10.675781 C 11.355469 10.132812 11.402344 9.324219 11.921875 8.839844 C 12.441406 8.351562 13.25 8.355469 13.761719 8.847656 L 20.78125 16.3125 C 21.171875 16.746094 21.214844 17.390625 20.890625 17.875 Z M 20.890625 17.875 "/>
<path style=" stroke:none;fill-rule:evenodd;fill:rgb(100%,100%,100%);fill-opacity:1;" d="M 17.390625 23.417969 L 22.953125 23.417969 C 23.59375 23.417969 24.113281 23.9375 24.113281 24.578125 C 24.113281 25.21875 23.59375 25.734375 22.953125 25.734375 L 17.390625 25.734375 C 16.75 25.734375 16.230469 25.21875 16.230469 24.578125 C 16.230469 23.9375 16.75 23.417969 17.390625 23.417969 Z M 17.390625 23.417969 "/>
</g>
</svg>
