<?xml version="1.0" encoding="UTF-8"?>
<svg xmlns="http://www.w3.org/2000/svg" xmlns:xlink="http://www.w3.org/1999/xlink" width="35px" height="35px" viewBox="0 0 35 35" version="1.1">
<defs>
<linearGradient id="linear0" gradientUnits="userSpaceOnUse" x1="-133.268005" y1="-202.910004" x2="-133.197998" y2="-202.839996" gradientTransform="matrix(207.13438,0,0,207.604685,27609.597473,42130.344238)">
<stop offset="0" style="stop-color:rgb(21.960784%,49.411765%,72.156863%);stop-opacity:1;"/>
<stop offset="1" style="stop-color:rgb(21.176471%,41.176471%,58.039216%);stop-opacity:1;"/>
</linearGradient>
<linearGradient id="linear1" gradientUnits="userSpaceOnUse" x1="-133.574997" y1="-203.203003" x2="-133.494995" y2="-203.132996" gradientTransform="matrix(207.13438,0,0,207.604685,27681.784973,42200.617676)">
<stop offset="0" style="stop-color:rgb(100%,87.843137%,32.156863%);stop-opacity:1;"/>
<stop offset="1" style="stop-color:rgb(100%,76.470588%,19.215686%);stop-opacity:1;"/>
</linearGradient>
</defs>
<g id="surface1">
<path style=" stroke:none;fill-rule:nonzero;fill:url(#linear0);" d="M 17.375 2.296875 C 9.609375 2.296875 10.101562 5.65625 10.101562 5.65625 L 10.101562 9.144531 L 17.484375 9.144531 L 17.484375 10.238281 L 7.160156 10.238281 C 7.160156 10.238281 2.1875 9.625 2.1875 17.503906 C 2.1875 25.386719 6.578125 25.066406 6.578125 25.066406 L 9.109375 25.066406 L 9.109375 21.390625 C 9.109375 21.390625 8.96875 17 13.375 17 L 20.773438 17 C 20.773438 17 24.898438 17.066406 24.898438 13.003906 L 24.898438 6.34375 C 24.898438 6.34375 25.523438 2.285156 17.414062 2.285156 Z M 13.292969 4.632812 C 14.027344 4.617188 14.636719 5.195312 14.652344 5.929688 C 14.671875 6.660156 14.09375 7.269531 13.359375 7.289062 C 12.625 7.308594 12.015625 6.726562 12 5.996094 L 12 5.972656 C 12 5.238281 12.59375 4.644531 13.328125 4.644531 Z M 13.292969 4.632812 "/>
<path style=" stroke:none;fill-rule:nonzero;fill:url(#linear1);" d="M 17.59375 32.714844 C 25.359375 32.714844 24.867188 29.34375 24.867188 29.34375 L 24.867188 25.867188 L 17.484375 25.867188 L 17.484375 24.773438 L 27.839844 24.773438 C 27.839844 24.773438 32.8125 25.328125 32.8125 17.496094 C 32.8125 9.660156 28.421875 9.933594 28.421875 9.933594 L 25.855469 9.933594 L 25.855469 13.5625 C 25.855469 13.5625 26 17.953125 21.589844 17.953125 L 14.191406 17.953125 C 14.191406 17.953125 10.0625 17.890625 10.0625 21.949219 L 10.0625 28.65625 C 10.0625 28.65625 9.4375 32.714844 17.546875 32.714844 Z M 21.675781 30.367188 C 20.941406 30.382812 20.332031 29.804688 20.3125 29.070312 C 20.296875 28.339844 20.875 27.730469 21.609375 27.710938 C 22.339844 27.691406 22.949219 28.273438 22.96875 29.003906 L 22.96875 29.039062 C 22.96875 29.769531 22.375 30.367188 21.640625 30.367188 Z M 21.675781 30.367188 "/>
</g>
</svg>
