<?xml version="1.0" encoding="UTF-8"?>
<svg xmlns="http://www.w3.org/2000/svg" xmlns:xlink="http://www.w3.org/1999/xlink" width="35px" height="35px" viewBox="0 0 35 35" version="1.1">
<g id="surface1">
<path style=" stroke:none;fill-rule:nonzero;fill:rgb(25.490198%,87.843138%,100%);fill-opacity:1;" d="M 11.246094 1.042969 C 10.523438 1.042969 9.875 1.207031 9.324219 1.523438 C 8.792969 1.832031 8.347656 2.289062 7.996094 2.886719 C 7.667969 3.445312 7.429688 4.125 7.28125 4.90625 C 6.992188 6.414062 7.054688 8.300781 7.460938 10.363281 C 7.511719 10.621094 7.566406 10.886719 7.625 11.148438 C 7.304688 11.246094 6.992188 11.34375 6.695312 11.449219 C 4.746094 12.128906 3.121094 13.015625 1.988281 14.011719 C 1.398438 14.53125 0.945312 15.078125 0.632812 15.640625 C 0.304688 16.234375 0.136719 16.847656 0.136719 17.457031 C 0.136719 18.683594 0.816406 19.921875 2.097656 21.046875 C 3.304688 22.105469 5.011719 23.03125 7.035156 23.722656 C 7.222656 23.789062 7.414062 23.851562 7.605469 23.910156 C 7.539062 24.203125 7.476562 24.496094 7.421875 24.789062 C 7.035156 26.816406 6.992188 28.667969 7.289062 30.148438 C 7.445312 30.914062 7.691406 31.582031 8.023438 32.132812 C 8.375 32.714844 8.820312 33.167969 9.351562 33.472656 C 9.90625 33.792969 10.5625 33.957031 11.300781 33.957031 C 12.300781 33.957031 13.421875 33.660156 14.628906 33.074219 C 15.8125 32.5 17.023438 31.675781 18.222656 30.628906 C 18.40625 30.464844 18.597656 30.292969 18.789062 30.113281 L 27.683594 30.113281 C 28.9375 30.113281 30.019531 29.929688 30.929688 29.5625 C 31.84375 29.195312 32.585938 28.703125 33.171875 28.082031 C 33.753906 27.460938 34.179688 26.722656 34.453125 25.863281 C 34.726562 25.011719 34.863281 24.085938 34.863281 23.101562 C 34.863281 21.382812 34.550781 19.960938 33.933594 18.816406 C 33.324219 17.691406 32.421875 16.960938 31.234375 16.625 C 32.113281 16.042969 32.792969 15.34375 33.269531 14.449219 C 33.75 13.546875 33.988281 12.460938 33.988281 11.195312 C 33.988281 9.101562 33.460938 7.542969 32.40625 6.507812 C 31.351562 5.472656 29.949219 4.957031 28.199219 4.957031 L 18.777344 4.957031 C 18.632812 4.820312 18.480469 4.683594 18.332031 4.550781 C 17.085938 3.445312 15.84375 2.578125 14.640625 1.976562 C 13.402344 1.355469 12.261719 1.042969 11.246094 1.042969 Z M 11.257812 3.503906 C 11.886719 3.503906 12.699219 3.75 13.605469 4.214844 C 14.589844 4.71875 15.660156 5.472656 16.695312 6.390625 C 16.757812 6.449219 16.824219 6.507812 16.890625 6.570312 C 15.980469 7.578125 15.082031 8.695312 14.21875 9.902344 C 12.75 10.042969 11.335938 10.257812 10.015625 10.539062 C 9.964844 10.328125 9.921875 10.117188 9.878906 9.910156 L 9.875 9.890625 C 9.5625 8.277344 9.484375 6.804688 9.652344 5.632812 C 9.800781 4.625 10.128906 3.90625 10.558594 3.65625 C 10.734375 3.554688 10.972656 3.503906 11.257812 3.503906 Z M 18.726562 8.152344 L 18.726562 26.839844 L 17.617188 25.472656 L 16.894531 24.578125 C 16.527344 24.128906 15.941406 23.292969 15.246094 22.226562 C 14.691406 21.382812 14.285156 20.703125 14.09375 20.375 L 14.074219 20.339844 C 13.738281 19.761719 13.492188 19.296875 13.292969 18.925781 C 13.042969 18.457031 12.796875 17.980469 12.558594 17.503906 L 12.601562 17.421875 L 12.605469 17.414062 C 12.867188 16.882812 13.140625 16.347656 13.421875 15.828125 L 13.425781 15.820312 L 13.726562 15.238281 L 14.167969 14.503906 L 14.171875 14.5 C 14.335938 14.21875 14.507812 13.933594 14.683594 13.65625 L 14.988281 13.152344 C 15.394531 12.480469 15.71875 11.988281 16.234375 11.277344 C 16.511719 10.898438 16.773438 10.5625 17.191406 10.039062 L 17.214844 10.011719 L 17.222656 10.003906 C 17.390625 9.789062 17.5625 9.574219 17.730469 9.371094 L 17.734375 9.363281 L 17.738281 9.359375 C 18.0625 8.957031 18.394531 8.550781 18.726562 8.152344 Z M 22.183594 8.519531 L 27.722656 8.519531 C 28.652344 8.519531 29.363281 8.78125 29.855469 9.296875 C 30.347656 9.8125 30.59375 10.707031 30.59375 11.976562 C 30.59375 13.105469 30.320312 13.964844 29.773438 14.574219 C 29.226562 15.179688 28.542969 15.476562 27.722656 15.476562 L 22.183594 15.476562 C 22.164062 15.476562 22.148438 15.453125 22.148438 15.425781 L 22.148438 8.570312 C 22.148438 8.542969 22.164062 8.519531 22.183594 8.519531 Z M 12.433594 12.605469 C 12.234375 12.933594 12.035156 13.265625 11.84375 13.59375 C 11.65625 13.925781 11.46875 14.257812 11.285156 14.59375 C 11.066406 14.027344 10.863281 13.464844 10.679688 12.917969 C 11.246094 12.800781 11.832031 12.695312 12.433594 12.605469 Z M 8.289062 13.519531 C 8.703125 14.8125 9.226562 16.148438 9.839844 17.496094 C 9.21875 18.867188 8.6875 20.222656 8.265625 21.535156 C 8.121094 21.488281 7.972656 21.441406 7.832031 21.394531 C 6.148438 20.820312 4.75 20.078125 3.78125 19.25 C 3.042969 18.613281 2.601562 17.945312 2.601562 17.460938 C 2.601562 16.960938 3.042969 16.316406 3.8125 15.695312 C 4.710938 14.96875 5.988281 14.304688 7.503906 13.777344 C 7.761719 13.6875 8.023438 13.601562 8.289062 13.519531 Z M 22.183594 18.648438 L 28.1875 18.648438 C 29.226562 18.648438 30.023438 18.972656 30.601562 19.648438 C 31.183594 20.324219 31.464844 21.277344 31.464844 22.523438 C 31.46875 23.792969 31.175781 24.78125 30.601562 25.472656 C 30.035156 26.171875 29.226562 26.515625 28.1875 26.515625 L 22.183594 26.515625 C 22.164062 26.515625 22.148438 26.496094 22.148438 26.46875 L 22.148438 18.695312 C 22.148438 18.667969 22.164062 18.648438 22.183594 18.648438 Z M 11.289062 20.394531 C 11.472656 20.734375 11.660156 21.070312 11.851562 21.398438 C 12.050781 21.746094 12.261719 22.09375 12.472656 22.4375 C 11.84375 22.351562 11.238281 22.25 10.660156 22.136719 C 10.847656 21.566406 11.058594 20.984375 11.289062 20.394531 Z M 9.996094 24.511719 C 11.300781 24.777344 12.730469 24.980469 14.25 25.109375 C 15.121094 26.324219 16.027344 27.449219 16.941406 28.464844 C 16.828125 28.566406 16.714844 28.667969 16.601562 28.769531 C 15.273438 29.929688 13.941406 30.769531 12.746094 31.195312 L 12.722656 31.207031 C 12.1875 31.394531 11.707031 31.488281 11.300781 31.488281 C 11 31.488281 10.757812 31.4375 10.582031 31.335938 C 10.148438 31.085938 9.8125 30.382812 9.660156 29.402344 C 9.476562 28.261719 9.542969 26.824219 9.839844 25.246094 C 9.886719 25.003906 9.9375 24.757812 9.996094 24.511719 Z M 9.996094 24.511719 "/>
</g>
</svg>
