<?xml version="1.0" encoding="UTF-8"?>
<svg xmlns="http://www.w3.org/2000/svg" xmlns:xlink="http://www.w3.org/1999/xlink" width="35px" height="35px" viewBox="0 0 35 35" version="1.1">
<g id="surface1">
<path style=" stroke:none;fill-rule:nonzero;fill:rgb(38.039216%,85.490197%,98.431373%);fill-opacity:1;" d="M 20.617188 17.5 C 20.617188 15.777344 19.222656 14.382812 17.5 14.382812 C 15.777344 14.382812 14.382812 15.777344 14.382812 17.5 C 14.382812 19.222656 15.777344 20.617188 17.5 20.617188 C 19.222656 20.617188 20.617188 19.222656 20.617188 17.5 Z M 20.617188 17.5 "/>
<path style=" stroke:none;fill-rule:nonzero;fill:rgb(38.039216%,85.490197%,98.431373%);fill-opacity:1;" d="M 29.339844 12.359375 C 28.738281 12.140625 28.109375 11.921875 27.453125 11.730469 C 27.617188 11.074219 27.753906 10.417969 27.863281 9.789062 C 28.4375 6.179688 27.808594 3.636719 26.058594 2.652344 C 25.539062 2.351562 24.964844 2.214844 24.308594 2.214844 C 22.394531 2.214844 19.960938 3.636719 17.5 6.015625 C 15.039062 3.636719 12.605469 2.214844 10.691406 2.214844 C 10.035156 2.214844 9.460938 2.351562 8.941406 2.652344 C 7.191406 3.664062 6.5625 6.207031 7.136719 9.789062 C 7.246094 10.417969 7.382812 11.074219 7.546875 11.730469 C 6.890625 11.921875 6.261719 12.113281 5.660156 12.359375 C 2.242188 13.671875 0.382812 15.476562 0.382812 17.5 C 0.382812 19.523438 2.269531 21.328125 5.660156 22.640625 C 6.261719 22.859375 6.890625 23.078125 7.546875 23.269531 C 7.382812 23.925781 7.246094 24.582031 7.136719 25.210938 C 6.5625 28.820312 7.191406 31.363281 8.941406 32.347656 C 9.460938 32.648438 10.035156 32.785156 10.691406 32.785156 C 12.632812 32.785156 15.066406 31.363281 17.5 28.984375 C 19.960938 31.363281 22.394531 32.785156 24.308594 32.785156 C 24.964844 32.785156 25.539062 32.648438 26.058594 32.347656 C 27.808594 31.335938 28.4375 28.792969 27.863281 25.210938 C 27.753906 24.582031 27.617188 23.925781 27.453125 23.269531 C 28.109375 23.078125 28.738281 22.886719 29.339844 22.640625 C 32.757812 21.328125 34.617188 19.523438 34.617188 17.5 C 34.617188 15.476562 32.757812 13.671875 29.339844 12.359375 Z M 25.292969 4.019531 C 26.414062 4.675781 26.796875 6.699219 26.332031 9.570312 C 26.25 10.144531 26.113281 10.746094 25.949219 11.375 C 24.527344 11.046875 23.023438 10.828125 21.4375 10.691406 C 20.507812 9.378906 19.550781 8.203125 18.59375 7.136719 C 20.617188 5.140625 22.667969 3.773438 24.335938 3.773438 C 24.691406 3.773438 25.019531 3.855469 25.292969 4.019531 Z M 22.230469 20.234375 C 21.738281 21.109375 21.164062 21.984375 20.5625 22.859375 C 19.550781 22.941406 18.539062 22.96875 17.5 22.96875 C 16.433594 22.96875 15.421875 22.941406 14.4375 22.859375 C 13.835938 21.984375 13.289062 21.109375 12.796875 20.234375 C 12.277344 19.332031 11.785156 18.402344 11.347656 17.5 C 11.785156 16.597656 12.277344 15.667969 12.796875 14.765625 C 13.289062 13.890625 13.863281 13.015625 14.464844 12.140625 C 15.476562 12.058594 16.488281 12.03125 17.527344 12.03125 C 18.59375 12.03125 19.605469 12.058594 20.589844 12.140625 C 21.191406 13.015625 21.738281 13.890625 22.230469 14.765625 C 22.75 15.667969 23.242188 16.597656 23.679688 17.5 C 23.214844 18.402344 22.75 19.304688 22.230469 20.234375 Z M 24.5 19.332031 C 24.910156 20.289062 25.238281 21.21875 25.539062 22.148438 C 24.609375 22.367188 23.625 22.53125 22.585938 22.667969 C 22.914062 22.148438 23.269531 21.601562 23.570312 21.027344 C 23.898438 20.453125 24.199219 19.878906 24.5 19.332031 Z M 17.5 26.742188 C 16.84375 26.03125 16.214844 25.265625 15.613281 24.472656 C 16.242188 24.5 16.871094 24.527344 17.5 24.527344 C 18.128906 24.527344 18.757812 24.5 19.386719 24.472656 C 18.785156 25.265625 18.15625 26.03125 17.5 26.742188 Z M 12.414062 22.640625 C 11.375 22.503906 10.390625 22.339844 9.460938 22.121094 C 9.761719 21.21875 10.089844 20.261719 10.5 19.304688 C 10.800781 19.851562 11.101562 20.425781 11.429688 20.972656 C 11.757812 21.574219 12.085938 22.09375 12.414062 22.640625 Z M 10.5 15.667969 C 10.089844 14.710938 9.761719 13.78125 9.460938 12.851562 C 10.390625 12.632812 11.375 12.46875 12.414062 12.332031 C 12.085938 12.851562 11.730469 13.398438 11.429688 13.972656 C 11.101562 14.546875 10.800781 15.121094 10.5 15.667969 Z M 17.5 8.257812 C 18.15625 8.96875 18.785156 9.734375 19.386719 10.527344 C 18.757812 10.5 18.128906 10.472656 17.5 10.472656 C 16.871094 10.472656 16.242188 10.5 15.613281 10.527344 C 16.214844 9.734375 16.84375 8.96875 17.5 8.257812 Z M 23.570312 14 L 22.585938 12.359375 C 23.625 12.496094 24.609375 12.660156 25.539062 12.878906 C 25.238281 13.78125 24.910156 14.738281 24.5 15.695312 C 24.199219 15.121094 23.898438 14.546875 23.570312 14 Z M 8.667969 9.570312 C 8.203125 6.699219 8.585938 4.675781 9.707031 4.019531 C 9.980469 3.855469 10.308594 3.773438 10.664062 3.773438 C 12.304688 3.773438 14.355469 5.113281 16.40625 7.136719 C 15.449219 8.175781 14.492188 9.378906 13.5625 10.691406 C 11.976562 10.828125 10.472656 11.074219 9.050781 11.375 C 8.886719 10.746094 8.777344 10.144531 8.667969 9.570312 Z M 1.914062 17.5 C 1.914062 16.214844 3.472656 14.847656 6.207031 13.835938 C 6.753906 13.617188 7.355469 13.425781 7.957031 13.261719 C 8.394531 14.628906 8.941406 16.078125 9.597656 17.527344 C 8.941406 18.976562 8.367188 20.398438 7.957031 21.765625 C 4.183594 20.671875 1.914062 19.03125 1.914062 17.5 Z M 9.707031 30.980469 C 8.585938 30.324219 8.203125 28.300781 8.667969 25.429688 C 8.75 24.855469 8.886719 24.253906 9.050781 23.625 C 10.472656 23.953125 11.976562 24.171875 13.5625 24.308594 C 14.492188 25.621094 15.449219 26.796875 16.40625 27.863281 C 14.382812 29.859375 12.332031 31.226562 10.664062 31.226562 C 10.308594 31.226562 9.980469 31.144531 9.707031 30.980469 Z M 26.332031 25.429688 C 26.796875 28.300781 26.414062 30.324219 25.292969 30.980469 C 25.019531 31.144531 24.691406 31.226562 24.335938 31.226562 C 22.695312 31.226562 20.644531 29.886719 18.59375 27.863281 C 19.550781 26.824219 20.507812 25.621094 21.4375 24.308594 C 23.023438 24.171875 24.527344 23.925781 25.949219 23.625 C 26.113281 24.253906 26.222656 24.855469 26.332031 25.429688 Z M 28.792969 21.164062 C 28.246094 21.382812 27.644531 21.574219 27.042969 21.738281 C 26.605469 20.371094 26.058594 18.921875 25.402344 17.472656 C 26.058594 16.023438 26.632812 14.601562 27.042969 13.234375 C 30.816406 14.328125 33.085938 15.96875 33.085938 17.5 C 33.085938 18.785156 31.5 20.152344 28.792969 21.164062 Z M 28.792969 21.164062 "/>
</g>
</svg>
