<?xml version="1.0" encoding="UTF-8"?>
<svg xmlns="http://www.w3.org/2000/svg" xmlns:xlink="http://www.w3.org/1999/xlink" width="35px" height="35px" viewBox="0 0 35 35" version="1.1">
<g id="surface1">
<path style=" stroke:none;fill-rule:nonzero;fill:rgb(46.27451%,29.019609%,73.725492%);fill-opacity:1;" d="M 24.25 24.09375 C 21.789062 29.125 17.480469 32.507812 11.78125 33.621094 C 10.90625 33.835938 10.007812 33.941406 9.109375 33.933594 C 5.828125 33.933594 2.820312 32.566406 1.359375 30.328125 C -0.601562 27.34375 -1.269531 21.019531 5.195312 16.339844 C 5.328125 17.054688 5.59375 18.03125 5.773438 18.613281 C 4.503906 19.554688 3.464844 20.773438 2.734375 22.175781 C 1.53125 24.539062 1.664062 26.898438 3.089844 29.078125 C 4.074219 30.550781 5.632812 31.445312 7.636719 31.71875 C 10.140625 32.035156 12.679688 31.558594 14.898438 30.351562 C 18.371094 28.523438 20.6875 26.34375 22.203125 23.359375 C 21.773438 22.917969 21.519531 22.335938 21.488281 21.71875 C 21.441406 20.34375 22.515625 19.191406 23.890625 19.140625 L 23.984375 19.140625 C 25.316406 19.132812 26.421875 20.175781 26.492188 21.503906 C 26.566406 22.835938 25.582031 23.992188 24.257812 24.132812 Z M 32.089844 18.570312 C 35.429688 22.351562 35.519531 26.808594 34.230469 29.390625 C 33.027344 31.75 29.855469 34.113281 25.589844 34.113281 C 23.597656 34.074219 21.636719 33.601562 19.847656 32.734375 C 20.472656 32.289062 21.359375 31.574219 21.851562 31.128906 C 23.230469 31.726562 24.71875 32.042969 26.226562 32.0625 C 28.988281 32.0625 31.078125 30.773438 32.324219 28.414062 C 33.125 26.855469 33.171875 25.027344 32.414062 23.15625 C 31.488281 20.804688 29.832031 18.808594 27.695312 17.457031 C 24.886719 15.566406 21.578125 14.554688 18.195312 14.5625 L 17.394531 14.5625 C 17.011719 15.441406 16.164062 16.027344 15.207031 16.074219 L 15.121094 16.074219 C 13.769531 16.058594 12.679688 14.972656 12.65625 13.621094 C 12.632812 12.269531 13.691406 11.144531 15.039062 11.085938 L 15.128906 11.085938 C 16.050781 11.085938 16.894531 11.601562 17.316406 12.421875 L 18.03125 12.421875 C 23.71875 12.421875 28.710938 14.605469 32.089844 18.570312 Z M 9.464844 24.859375 C 9.417969 24.402344 9.527344 23.949219 9.777344 23.566406 C 7.28125 19.246094 5.945312 13.765625 7.996094 8.066406 C 9.464844 3.78125 13.160156 0.886719 17.167969 0.886719 C 21.445312 0.886719 25.898438 4.628906 26.433594 11.84375 C 25.765625 11.621094 24.792969 11.296875 24.207031 11.175781 C 24.0625 8.816406 22.070312 2.9375 17.347656 3.023438 C 15.65625 3.070312 13.160156 3.871094 11.878906 5.519531 C 10.292969 7.484375 9.367188 9.898438 9.242188 12.421875 C 8.941406 15.878906 9.753906 19.34375 11.558594 22.308594 C 11.65625 22.273438 11.765625 22.257812 11.871094 22.265625 L 11.957031 22.265625 C 13.335938 22.242188 14.472656 23.335938 14.496094 24.714844 C 14.519531 26.09375 13.425781 27.230469 12.046875 27.253906 L 11.957031 27.253906 C 10.617188 27.25 9.519531 26.1875 9.464844 24.851562 Z M 9.464844 24.859375 "/>
</g>
</svg>
