<?xml version="1.0" encoding="UTF-8"?>
<svg xmlns="http://www.w3.org/2000/svg" xmlns:xlink="http://www.w3.org/1999/xlink" width="35px" height="35px" viewBox="0 0 35 35" version="1.1">
<g id="surface1">
<path style=" stroke:none;fill-rule:evenodd;fill:rgb(79.607844%,40.000001%,60.000002%);fill-opacity:1;" d="M 0.332031 15.355469 C 0.332031 15.546875 0.390625 15.675781 0.421875 15.796875 C 0.628906 16.597656 1.074219 17.289062 1.601562 17.914062 C 2.351562 18.808594 3.269531 19.53125 4.210938 20.207031 C 5.03125 20.796875 5.863281 21.371094 6.683594 21.953125 C 6.824219 22.050781 6.957031 22.167969 7.109375 22.289062 C 6.980469 22.363281 6.871094 22.425781 6.753906 22.480469 C 5.671875 23.03125 4.632812 23.644531 3.671875 24.390625 C 3.09375 24.839844 2.535156 25.320312 2.136719 25.945312 C 1.503906 26.949219 1.277344 28.015625 1.75 29.160156 C 1.890625 29.492188 2.101562 29.78125 2.398438 29.996094 C 2.496094 30.0625 2.601562 30.132812 2.714844 30.160156 C 3.003906 30.226562 3.300781 30.269531 3.59375 30.324219 L 4.421875 30.324219 C 5.339844 30.242188 6.175781 29.929688 6.929688 29.40625 C 8.109375 28.59375 8.902344 27.503906 9.242188 26.101562 C 9.492188 25.085938 9.503906 24.066406 9.210938 23.054688 C 9.183594 22.957031 9.148438 22.867188 9.113281 22.777344 C 9.078125 22.683594 9.035156 22.597656 8.984375 22.484375 L 10.867188 21.402344 L 10.894531 21.425781 C 10.859375 21.539062 10.824219 21.648438 10.792969 21.761719 C 10.570312 22.578125 10.421875 23.40625 10.472656 24.253906 C 10.53125 25.15625 10.785156 26 11.3125 26.753906 C 11.738281 27.367188 12.757812 27.386719 13.210938 26.777344 C 13.371094 26.558594 13.527344 26.332031 13.644531 26.089844 C 13.953125 25.457031 14.234375 24.8125 14.527344 24.171875 L 14.578125 24.054688 C 14.558594 24.359375 14.535156 24.625 14.523438 24.890625 C 14.503906 25.304688 14.527344 25.71875 14.671875 26.113281 C 14.792969 26.453125 15 26.707031 15.386719 26.75 C 15.652344 26.78125 15.863281 26.660156 16.058594 26.507812 C 16.363281 26.265625 16.609375 25.96875 16.796875 25.632812 C 17.316406 24.675781 17.847656 23.726562 18.320312 22.75 C 18.828125 21.691406 19.273438 20.601562 19.75 19.523438 L 19.828125 19.335938 C 19.9375 19.773438 20.015625 20.203125 20.160156 20.613281 C 20.328125 21.085938 20.535156 21.546875 20.757812 21.996094 C 20.863281 22.207031 20.851562 22.34375 20.703125 22.523438 C 20.085938 23.265625 19.480469 24.019531 18.875 24.769531 C 18.742188 24.9375 18.605469 25.105469 18.496094 25.285156 C 18.425781 25.398438 18.382812 25.53125 18.363281 25.660156 C 18.328125 25.90625 18.480469 26.140625 18.742188 26.199219 C 18.980469 26.25 19.238281 26.269531 19.480469 26.25 C 20.328125 26.1875 21.097656 25.890625 21.777344 25.386719 C 22.660156 24.734375 22.941406 23.84375 22.726562 22.789062 C 22.671875 22.503906 22.570312 22.226562 22.46875 21.949219 C 22.425781 21.824219 22.421875 21.738281 22.503906 21.621094 C 23.207031 20.617188 23.808594 19.550781 24.367188 18.457031 C 24.390625 18.414062 24.414062 18.371094 24.453125 18.328125 C 24.632812 19.269531 24.90625 20.179688 25.394531 21.003906 C 25.144531 21.246094 24.898438 21.460938 24.675781 21.703125 C 24.183594 22.230469 23.757812 22.804688 23.535156 23.503906 C 23.4375 23.808594 23.363281 24.113281 23.40625 24.4375 C 23.472656 24.9375 23.882812 25.261719 24.375 25.148438 C 25.429688 24.90625 26.339844 24.410156 27.003906 23.527344 C 27.453125 22.9375 27.492188 22.277344 27.304688 21.582031 C 27.253906 21.394531 27.191406 21.210938 27.128906 20.996094 C 27.386719 20.914062 27.640625 20.816406 27.902344 20.757812 C 29.265625 20.445312 30.609375 20.5 31.921875 20.992188 C 32.6875 21.28125 33.308594 21.761719 33.675781 22.515625 C 34.121094 23.441406 33.875 24.316406 33.003906 24.902344 C 32.921875 24.953125 32.828125 24.996094 32.761719 25.066406 C 32.722656 25.109375 32.695312 25.191406 32.707031 25.25 C 32.710938 25.28125 32.800781 25.324219 32.851562 25.324219 C 33.140625 25.320312 33.371094 25.171875 33.59375 25.019531 C 34.152344 24.632812 34.558594 24.113281 34.648438 23.425781 L 34.664062 23.375 L 34.644531 22.929688 C 34.636719 22.90625 34.648438 22.878906 34.648438 22.859375 C 34.527344 21.863281 33.996094 21.089844 33.222656 20.484375 C 32.324219 19.78125 31.265625 19.492188 30.148438 19.449219 C 29.234375 19.410156 28.335938 19.546875 27.476562 19.859375 C 27.230469 19.949219 26.988281 20.054688 26.742188 20.152344 C 26.707031 20.09375 26.671875 20.035156 26.644531 19.976562 C 26.390625 19.457031 26.082031 18.960938 26.015625 18.367188 C 25.96875 17.945312 25.910156 17.523438 26.007812 17.105469 C 26.105469 16.703125 26.230469 16.308594 26.347656 15.914062 C 26.410156 15.710938 26.367188 15.59375 26.171875 15.503906 C 26.105469 15.472656 26.03125 15.445312 25.957031 15.433594 C 25.480469 15.363281 25.007812 15.402344 24.542969 15.539062 C 24.378906 15.585938 24.261719 15.675781 24.222656 15.859375 C 24.203125 15.964844 24.160156 16.0625 24.132812 16.164062 C 24.011719 16.59375 23.925781 17.027344 23.730469 17.4375 C 23.238281 18.457031 22.679688 19.441406 22.105469 20.414062 C 22.042969 20.519531 21.976562 20.625 21.898438 20.753906 C 21.699219 20.332031 21.484375 19.953125 21.417969 19.511719 C 21.34375 19.007812 21.285156 18.507812 21.410156 18.011719 C 21.503906 17.640625 21.625 17.277344 21.738281 16.910156 C 21.789062 16.738281 21.765625 16.644531 21.609375 16.554688 C 21.527344 16.507812 21.4375 16.46875 21.347656 16.453125 C 20.851562 16.378906 20.363281 16.417969 19.886719 16.574219 C 19.738281 16.621094 19.660156 16.71875 19.613281 16.871094 C 19.480469 17.324219 19.367188 17.785156 19.179688 18.214844 C 18.421875 19.953125 17.640625 21.683594 16.859375 23.414062 C 16.699219 23.773438 16.507812 24.125 16.324219 24.476562 C 16.277344 24.5625 16.210938 24.644531 16.152344 24.726562 C 16.105469 24.671875 16.085938 24.632812 16.085938 24.597656 C 16.089844 24.375 16.0625 24.144531 16.105469 23.929688 C 16.230469 23.28125 16.378906 22.632812 16.535156 21.988281 C 16.664062 21.457031 16.8125 20.929688 16.957031 20.402344 C 17.003906 20.222656 17.003906 20.058594 16.878906 19.910156 C 16.664062 19.660156 16.21875 19.605469 15.953125 19.796875 L 15.835938 19.863281 L 15.859375 19.675781 C 15.914062 19.269531 15.925781 18.867188 15.816406 18.46875 C 15.675781 17.972656 15.320312 17.6875 14.808594 17.703125 C 14.566406 17.710938 14.316406 17.75 14.09375 17.839844 C 13.15625 18.207031 12.4375 18.855469 11.828125 19.636719 C 11.769531 19.707031 11.699219 19.769531 11.621094 19.8125 C 10.828125 20.253906 10.035156 20.6875 9.242188 21.121094 L 8.359375 21.605469 C 8.121094 21.378906 7.90625 21.144531 7.664062 20.945312 C 6.917969 20.335938 6.160156 19.742188 5.410156 19.140625 C 4.742188 18.609375 4.097656 18.054688 3.605469 17.347656 C 3.238281 16.824219 3 16.25 2.980469 15.601562 C 2.949219 14.773438 3.183594 14.015625 3.605469 13.3125 C 4.144531 12.414062 4.878906 11.691406 5.6875 11.035156 C 6.542969 10.34375 7.464844 9.757812 8.421875 9.222656 C 9.761719 8.472656 11.140625 7.808594 12.621094 7.371094 C 14.136719 6.917969 15.671875 6.664062 17.257812 6.839844 C 17.882812 6.914062 18.488281 7.054688 19.042969 7.359375 C 19.46875 7.59375 19.820312 7.898438 19.980469 8.375 C 20.140625 8.847656 20.136719 9.320312 20.023438 9.800781 C 19.800781 10.765625 19.269531 11.5625 18.605469 12.273438 C 17.511719 13.441406 16.179688 14.234375 14.679688 14.757812 C 13.816406 15.0625 12.925781 15.253906 12.011719 15.328125 C 11.265625 15.390625 10.535156 15.324219 9.828125 15.066406 C 9.359375 14.894531 8.953125 14.628906 8.625 14.25 C 8.566406 14.179688 8.492188 14.105469 8.382812 14.171875 C 8.273438 14.234375 8.257812 14.335938 8.292969 14.4375 C 8.351562 14.609375 8.40625 14.789062 8.5 14.941406 C 8.734375 15.324219 9.078125 15.605469 9.453125 15.84375 C 10.175781 16.300781 10.984375 16.457031 11.820312 16.492188 C 13.089844 16.546875 14.332031 16.359375 15.554688 16.015625 C 17.300781 15.53125 18.816406 14.671875 20.035156 13.3125 C 21.046875 12.183594 21.769531 10.910156 21.925781 9.371094 C 22 8.621094 21.921875 7.882812 21.570312 7.199219 C 21.1875 6.457031 20.582031 5.90625 19.855469 5.523438 C 18.800781 4.972656 17.660156 4.648438 16.484375 4.648438 L 15.304688 4.648438 C 13.882812 4.648438 12.503906 5.058594 11.164062 5.542969 C 10.152344 5.914062 9.160156 6.347656 8.195312 6.828125 C 6.09375 7.878906 4.136719 9.144531 2.527344 10.886719 C 1.730469 11.753906 1.050781 12.710938 0.660156 13.835938 C 0.546875 14.164062 0.4375 14.519531 0.355469 14.859375 M 7.96875 24.707031 C 7.878906 25.925781 7.324219 26.914062 6.421875 27.714844 C 5.914062 28.164062 5.332031 28.488281 4.652344 28.597656 C 4.40625 28.640625 4.15625 28.648438 3.917969 28.546875 C 3.574219 28.402344 3.5 28.101562 3.492188 27.777344 C 3.484375 27.265625 3.664062 26.800781 3.910156 26.359375 C 4.230469 25.785156 4.703125 25.347656 5.207031 24.9375 C 6 24.292969 6.859375 23.746094 7.738281 23.230469 L 7.804688 23.203125 C 7.941406 23.703125 8.007812 24.203125 7.96875 24.707031 Z M 14.847656 19.410156 C 14.785156 19.796875 14.703125 20.1875 14.589844 20.566406 C 14.195312 21.871094 13.691406 23.136719 13.144531 24.386719 C 13.042969 24.617188 12.898438 24.828125 12.769531 25.046875 C 12.75 25.082031 12.722656 25.109375 12.691406 25.136719 C 12.535156 25.292969 12.386719 25.285156 12.304688 25.082031 C 12.210938 24.84375 12.15625 24.589844 12.105469 24.339844 C 12.074219 24.171875 12.082031 23.992188 12.070312 23.820312 C 12.082031 22.589844 12.457031 21.476562 13.09375 20.433594 C 13.355469 20.007812 13.640625 19.597656 14.074219 19.328125 C 14.210938 19.242188 14.359375 19.175781 14.511719 19.132812 C 14.746094 19.066406 14.886719 19.175781 14.847656 19.410156 Z M 19.542969 25.386719 L 21.230469 23.417969 C 21.300781 24.148438 20.054688 25.609375 19.542969 25.386719 Z M 24.929688 24.0625 C 24.808594 24.132812 24.679688 24.179688 24.558594 24.242188 C 24.445312 24.300781 24.410156 24.242188 24.40625 24.148438 C 24.402344 24.082031 24.414062 24.011719 24.429688 23.949219 C 24.660156 23.144531 25.078125 22.460938 25.703125 21.902344 L 25.746094 21.878906 C 26.042969 22.710938 25.699219 23.621094 24.929688 24.0625 Z M 24.929688 24.0625 "/>
</g>
</svg>
