<?xml version="1.0" encoding="UTF-8"?>
<svg xmlns="http://www.w3.org/2000/svg" xmlns:xlink="http://www.w3.org/1999/xlink" width="35px" height="35px" viewBox="0 0 35 35" version="1.1">
<defs>
<linearGradient id="linear0" gradientUnits="userSpaceOnUse" x1="2.983" y1="0.53" x2="2.983" y2="4.744" gradientTransform="matrix(5.339436,0,0,5.339436,0.00266952,0)">
<stop offset="0" style="stop-color:rgb(59.215686%,85.098039%,96.470588%);stop-opacity:1;"/>
<stop offset="0.92024" style="stop-color:rgb(5.882353%,50.196078%,80%);stop-opacity:1;"/>
<stop offset="1" style="stop-color:rgb(5.882353%,50.196078%,80%);stop-opacity:1;"/>
</linearGradient>
</defs>
<g id="surface1">
<path style=" stroke:none;fill-rule:nonzero;fill:rgb(5.882353%,50.196081%,80.000001%);fill-opacity:1;" d="M 26.484375 1.546875 L 4.523438 1.546875 C 3.050781 1.546875 1.855469 2.753906 1.855469 4.21875 L 1.855469 28.4375 C 1.855469 29.910156 3.0625 31.109375 4.523438 31.109375 L 18.996094 31.109375 C 18.835938 23.910156 21.289062 9.941406 26.492188 1.527344 Z M 26.484375 1.546875 "/>
<path style=" stroke:none;fill-rule:nonzero;fill:url(#linear0);" d="M 25.683594 2.332031 L 4.523438 2.332031 C 3.480469 2.332031 2.628906 3.1875 2.628906 4.230469 L 2.628906 26.679688 C 7.425781 24.839844 14.617188 23.253906 19.59375 23.328125 C 21.128906 16.195312 23.164062 9.179688 25.691406 2.332031 Z M 25.683594 2.332031 "/>
<path style=" stroke:none;fill-rule:nonzero;fill:rgb(0%,23.137255%,34.117648%);fill-opacity:1;" d="M 31.613281 0.757812 C 30.105469 -0.578125 28.285156 -0.0429688 26.484375 1.546875 L 25.683594 2.328125 C 22.609375 5.585938 19.8125 11.628906 18.871094 16.246094 C 19.207031 16.980469 19.472656 17.742188 19.664062 18.523438 L 19.78125 19.054688 L 19.898438 19.601562 C 19.898438 19.601562 19.871094 19.496094 19.757812 19.175781 L 19.683594 18.960938 C 19.433594 18.378906 18.886719 17.390625 18.636719 16.964844 C 18.441406 17.53125 18.257812 18.101562 18.085938 18.675781 C 18.792969 19.96875 19.21875 22.179688 19.21875 22.179688 C 19.21875 22.179688 19.183594 22.035156 19.003906 21.539062 C 18.84375 21.097656 18.066406 19.722656 17.882812 19.402344 C 17.5625 20.578125 17.441406 21.367188 17.554688 21.5625 C 17.765625 21.933594 17.980469 22.628906 18.167969 23.289062 C 18.457031 24.464844 18.691406 25.652344 18.871094 26.847656 L 18.898438 27.175781 C 18.84375 28.511719 18.871094 29.851562 18.980469 31.183594 C 19.117188 32.855469 19.378906 34.289062 19.710938 35.058594 L 19.933594 34.9375 C 19.453125 33.417969 19.25 31.4375 19.335938 29.148438 C 19.46875 25.652344 20.269531 21.433594 21.761719 17.039062 C 24.285156 10.347656 27.769531 5.019531 30.960938 2.476562 C 28.050781 5.105469 24.117188 13.605469 22.941406 16.75 C 21.621094 20.273438 20.6875 23.585938 20.121094 26.75 C 21.09375 23.78125 24.234375 22.5 24.234375 22.5 C 24.234375 22.5 25.78125 20.597656 27.574219 17.882812 L 24.132812 18.800781 L 23.019531 19.292969 C 23.019531 19.292969 25.851562 17.566406 28.289062 16.78125 C 31.640625 11.511719 35.285156 4.019531 31.613281 0.753906 "/>
</g>
</svg>
