<?xml version="1.0" encoding="UTF-8"?>
<svg xmlns="http://www.w3.org/2000/svg" xmlns:xlink="http://www.w3.org/1999/xlink" width="35px" height="35px" viewBox="0 0 35 35" version="1.1">
<g id="surface1">
<path style=" stroke:none;fill-rule:nonzero;fill:rgb(21.960784%,74.117649%,97.254902%);fill-opacity:1;" d="M 17.5 7 C 12.835938 7 9.917969 9.332031 8.75 14 C 10.5 11.667969 12.542969 10.792969 14.875 11.375 C 16.207031 11.707031 17.160156 12.671875 18.214844 13.742188 C 19.929688 15.484375 21.914062 17.5 26.25 17.5 C 30.917969 17.5 33.832031 15.167969 35 10.5 C 33.25 12.832031 31.210938 13.707031 28.875 13.125 C 27.542969 12.792969 26.59375 11.828125 25.539062 10.757812 C 23.824219 9.015625 21.839844 7 17.5 7 Z M 8.75 17.5 C 4.085938 17.5 1.167969 19.832031 0 24.5 C 1.75 22.167969 3.792969 21.292969 6.125 21.875 C 7.457031 22.207031 8.410156 23.171875 9.464844 24.242188 C 11.179688 25.984375 13.164062 28 17.5 28 C 22.167969 28 25.082031 25.667969 26.25 21 C 24.5 23.332031 22.460938 24.207031 20.125 23.625 C 18.792969 23.292969 17.84375 22.328125 16.789062 21.257812 C 15.074219 19.515625 13.089844 17.5 8.75 17.5 Z M 8.75 17.5 "/>
</g>
</svg>
