<?xml version="1.0" encoding="UTF-8"?>
<svg xmlns="http://www.w3.org/2000/svg" xmlns:xlink="http://www.w3.org/1999/xlink" width="35px" height="35px" viewBox="0 0 35 35" version="1.1">
<defs>
<linearGradient id="linear0" gradientUnits="userSpaceOnUse" x1="6" y1="33" x2="235" y2="344" gradientTransform="matrix(0.0853672,0,0,0.0853672,0,0.256211)">
<stop offset="0" style="stop-color:rgb(25.490196%,81.960784%,100%);stop-opacity:1;"/>
<stop offset="1" style="stop-color:rgb(74.117647%,20.392157%,99.607843%);stop-opacity:1;"/>
</linearGradient>
<linearGradient id="linear1" gradientUnits="userSpaceOnUse" x1="194.651001" y1="8.818" x2="236.076004" y2="292.989014" gradientTransform="matrix(0.0853672,0,0,0.0853672,0,0.256211)">
<stop offset="0" style="stop-color:rgb(100%,91.764706%,51.372549%);stop-opacity:1;"/>
<stop offset="0.083" style="stop-color:rgb(100%,86.666667%,20.784314%);stop-opacity:1;"/>
<stop offset="1" style="stop-color:rgb(100%,65.882353%,0%);stop-opacity:1;"/>
</linearGradient>
</defs>
<g id="surface1">
<path style=" stroke:none;fill-rule:nonzero;fill:url(#linear0);" d="M 34.117188 5.335938 L 18.410156 33.425781 C 18.085938 34.003906 17.25 34.007812 16.921875 33.429688 L 0.902344 5.339844 C 0.542969 4.710938 1.082031 3.949219 1.796875 4.078125 L 17.519531 6.886719 C 17.621094 6.90625 17.722656 6.90625 17.824219 6.886719 L 33.21875 4.082031 C 33.925781 3.953125 34.46875 4.707031 34.117188 5.335938 Z M 34.117188 5.335938 "/>
<path style=" stroke:none;fill-rule:nonzero;fill:url(#linear1);" d="M 25.007812 0.390625 L 13.386719 2.667969 C 13.195312 2.707031 13.054688 2.867188 13.042969 3.0625 L 12.328125 15.136719 C 12.320312 15.273438 12.375 15.402344 12.476562 15.488281 C 12.578125 15.578125 12.71875 15.609375 12.847656 15.578125 L 16.085938 14.832031 C 16.226562 14.800781 16.375 14.839844 16.480469 14.941406 C 16.582031 15.042969 16.628906 15.191406 16.597656 15.332031 L 15.636719 20.042969 C 15.609375 20.191406 15.65625 20.34375 15.769531 20.441406 C 15.878906 20.542969 16.035156 20.578125 16.179688 20.535156 L 18.179688 19.929688 C 18.488281 19.832031 18.785156 20.105469 18.722656 20.421875 L 17.191406 27.820312 C 17.097656 28.28125 17.710938 28.535156 17.96875 28.136719 L 18.140625 27.871094 L 27.613281 8.96875 C 27.769531 8.652344 27.496094 8.292969 27.148438 8.359375 L 23.816406 9.003906 C 23.671875 9.03125 23.523438 8.980469 23.421875 8.871094 C 23.320312 8.761719 23.285156 8.605469 23.328125 8.464844 L 25.5 0.929688 C 25.542969 0.785156 25.507812 0.628906 25.40625 0.519531 C 25.304688 0.410156 25.15625 0.363281 25.007812 0.390625 Z M 25.007812 0.390625 "/>
</g>
</svg>
